<svg xmlns="http://www.w3.org/2000/svg" viewBox="294 121 430 430" width="430" height="430" role="img" aria-label="Hoja de monstera SMCR">
<path d="M0 0 C2.49104367 1.90197152 4.76401241 3.88801088 7.02734375 6.0546875 C7.79304687 6.76882812 8.55875 7.48296875 9.34765625 8.21875 C20.98705988 20.01597605 26.43676099 34.88201818 26.33984375 51.2421875 C26.13650147 80.58355377 10.34899069 101.72847533 -6.97192383 124.16259766 C-13.10852239 132.13937094 -18.79614773 140.36933202 -24.40039062 148.72509766 C-25.9756113 151.05906592 -27.57161415 153.3772539 -29.17578125 155.69140625 C-56.21731339 194.72957513 -82.05497618 236.37879958 -102.97265625 279.0546875 C-102.52051758 278.30598389 -102.06837891 277.55728027 -101.60253906 276.78588867 C-92.99061283 262.53561691 -84.33943571 248.32063346 -75.38769531 234.28027344 C-73.92706016 231.98297356 -72.47590988 229.67992714 -71.02734375 227.375 C-47.71306145 190.28201501 -23.48481282 153.7221857 4.47167969 119.93505859 C5.47543202 118.72179737 6.47630347 117.50614421 7.47363281 116.28759766 C20.00147139 101.013037 33.84470662 86.47939307 50.02734375 75.0546875 C50.58309082 74.65991211 51.13883789 74.26513672 51.71142578 73.85839844 C72.56945332 59.25597639 96.62348181 50.25859724 122.3671875 54.703125 C136.12980599 57.58218262 147.18931971 64.09792869 157.02734375 74.0546875 C158.05601562 75.05048828 158.05601562 75.05048828 159.10546875 76.06640625 C180.34960135 98.02146455 183.51356848 128.8624942 183.23828125 157.82421875 C182.56041804 189.57918103 171.76892013 226.00631256 150.02734375 250.0546875 C149.51300781 250.62832031 148.99867188 251.20195312 148.46875 251.79296875 C147.99308594 252.20933594 147.51742188 252.62570312 147.02734375 253.0546875 C144.88988453 252.80322171 143.56808596 252.59542971 142.02734375 251.0546875 C140.82947821 244.11053947 140.83662685 237.14684909 140.69714355 230.11566162 C140.33471401 213.44242132 139.01057038 198.50182491 132.02734375 183.0546875 C131.60839844 182.12140625 131.18945312 181.188125 130.7578125 180.2265625 C123.94476313 166.48265887 111.14779544 153.88480102 96.578125 148.6796875 C90.7899831 147.26145977 85.4028364 147.00947074 79.90234375 149.4296875 C76.62942652 154.01177163 76.55916117 158.88503759 77.3671875 164.35546875 C80.27252093 175.0463362 89.75089972 182.95731368 97.46484375 190.3671875 C111.44001691 204.10419336 123.02989125 219.70227638 123.40820312 240.10644531 C123.35366509 263.47599366 114.32266466 283.54184273 98.02734375 300.17578125 C86.24039761 311.74129897 66.54318489 327.58862401 49.40234375 328.1796875 C46.02734375 328.0546875 46.02734375 328.0546875 45.02734375 327.0546875 C44.53312548 320.12752983 46.04712 314.15260666 47.83984375 307.4921875 C48.39439055 305.35219936 48.94648021 303.21157296 49.49609375 301.0703125 C49.76164062 300.03841797 50.0271875 299.00652344 50.30078125 297.94335938 C58.07602597 267.03049124 59.87128993 228.86650934 43.53515625 200.33984375 C40.6349063 195.94438722 37.06363407 193.46016387 32.02734375 192.0546875 C27.42707904 191.60496712 23.06062149 191.56354537 19.02734375 194.0546875 C12.58652474 207.14188358 19.76375418 222.8523471 23.85205078 235.6328125 C32.52702289 262.7690944 36.94184947 291.07310337 24.6953125 317.89453125 C22.29325891 322.4454946 19.46860428 326.24635918 16.02734375 330.0546875 C15.52976562 330.65539062 15.0321875 331.25609375 14.51953125 331.875 C-4.98646464 353.7334778 -39.27823614 354.5193932 -65.97265625 356.0546875 C-67.14489746 356.11978516 -68.31713867 356.18488281 -69.52490234 356.25195312 C-98.0391739 357.87501645 -123.37345869 362.81159265 -146.15234375 380.7734375 C-147.97265625 382.1796875 -147.97265625 382.1796875 -150.97265625 384.0546875 C-153.66015625 383.671875 -153.66015625 383.671875 -155.97265625 383.0546875 C-157.63386208 376.72796742 -159.0948457 370.4368192 -160.22265625 363.9921875 C-163.31636388 348.49224117 -170.00296555 334.42864147 -176.97241211 320.33056641 C-177.47522705 319.31269043 -177.97804199 318.29481445 -178.49609375 317.24609375 C-178.94903809 316.34060791 -179.40198242 315.43512207 -179.86865234 314.50219727 C-183.89803984 305.56928933 -183.27531959 292.34812849 -179.9375 283.2421875 C-173.07989014 267.69457 -161.12127631 258.33430447 -147.18701172 249.27270508 C-134.25663287 241.04117123 -134.25663287 241.04117123 -126.97265625 228.0546875 C-127.03757784 224.22431363 -127.46769808 221.91092091 -129.41015625 218.6171875 C-133.62832705 216.04513213 -137.17632324 216.14351078 -141.97265625 217.0546875 C-165.82826004 225.70874902 -182.4986278 246.23078926 -193.17578125 268.41796875 C-194.61942907 271.40186824 -196.21086634 274.24343632 -197.97265625 277.0546875 C-202.398163 276.29819062 -203.73953418 274.443066 -206.2578125 270.88671875 C-216.06449362 254.69117475 -222.07345834 237.80675335 -217.78515625 218.7421875 C-212.73753859 201.2281281 -200.98472054 189.09280315 -185.55859375 179.94140625 C-170.66638236 171.81725429 -154.38001328 168.87564311 -137.59765625 168.0546875 C-115.90939377 167.64446419 -115.90939377 167.64446419 -97.203125 158.3125 C-93.05511755 153.63020588 -91.57271851 150.61377188 -91.61328125 144.31640625 C-92.18322491 140.72947821 -94.17491674 139.18629856 -96.97265625 137.0546875 C-113.74334259 128.66934433 -145.69005832 141.59424697 -161.84765625 146.8828125 C-182.12721895 153.85786809 -199.79393166 164.87596291 -214.97265625 180.0546875 C-217.59765625 179.6796875 -217.59765625 179.6796875 -219.97265625 179.0546875 C-226.81993116 158.51286278 -215.92689934 129.38324929 -206.97265625 111.0546875 C-197.97562623 94.26174229 -184.06447798 81.44174151 -166.05078125 75.01171875 C-144.97468457 69.19668171 -123.98261387 74.32671145 -103.97753906 81.36132812 C-97.61078015 83.52453568 -91.72847672 85.01547893 -84.97265625 84.0546875 C-82.1970078 82.69706596 -82.1970078 82.69706596 -80.97265625 80.0546875 C-80.36708716 75.96709615 -80.65269809 73.7079354 -82.47265625 69.9921875 C-91.77934229 59.0568314 -106.5330107 54.01592948 -120.55273438 52.83789062 C-134.99139559 51.95470104 -147.38450084 53.67959907 -160.97167969 58.61743164 C-163.29923899 59.12605276 -164.73312841 58.79543991 -166.97265625 58.0546875 C-165.36767562 43.17608332 -146.96868889 28.22999505 -135.97265625 19.0546875 C-98.23697719 -11.26492033 -43.65473593 -28.56775097 0 0 Z " fill="#2B7073" transform="translate(530.97265625,157.9453125)"></path>
<path d="M0 0 C5.5122786 3.42986224 8.96722885 8.90168654 11 15 C11.81678485 26.16718966 10.94650368 34.2240626 3.9375 43.1875 C-2.32115132 49.74856514 -8.70052057 53.24780153 -17.80541992 53.59960938 C-18.59150635 53.60798828 -19.37759277 53.61636719 -20.1875 53.625 C-20.93555908 53.63595703 -21.68361816 53.64691406 -22.4543457 53.65820312 C-29.19635439 53.48569336 -34.28182318 51.28922138 -39.42578125 46.95703125 C-45.90718033 39.58997515 -48.8020816 32.81505263 -48.46875 22.8984375 C-47.04820513 14.11473503 -42.1983035 7.09665395 -35.3359375 1.625 C-24.43608244 -5.95750787 -11.73485383 -6.44969066 0 0 Z " fill="#FB7A62" transform="translate(684,461)"></path>
<path d="M0 0 C3.27365512 2.09849687 6.24483773 4.48967546 8 8 C8.96158242 17.20371749 7.80722701 25.01187154 3 33 C-0.7517181 37.21867014 -4.11602419 39.84557575 -9.8125 40.3125 C-13.13227327 40.28232024 -13.99044521 40.0060988 -16.9375 38.125 C-21.05146143 33.88637307 -20.39038586 29.50015168 -20.34375 23.81640625 C-19.52066455 14.67828706 -15.39990867 7.39990867 -9 1 C-5.79745853 -0.60127074 -3.54685436 -0.40701607 0 0 Z " fill="#F6F0E1" transform="translate(500,402)"></path>
<path d="M0 0 C0 3.20395416 -0.74335022 5.09399739 -2 8 C-0.35 6.68 1.3 5.36 3 4 C1.56161422 8.03966284 -0.39303953 11.27983244 -2.82421875 14.8046875 C-3.2024176 15.35662277 -3.58061646 15.90855804 -3.97027588 16.47721863 C-4.78273152 17.66236157 -5.59721754 18.84611471 -6.4135437 20.02859497 C-8.58384505 23.17411522 -10.73680316 26.33146411 -12.890625 29.48828125 C-13.32539658 30.1249321 -13.76016815 30.76158295 -14.20811462 31.41752625 C-24.28264586 46.19385969 -33.8994736 61.28057467 -43.39306641 76.43505859 C-45.18021094 79.28764755 -46.97110432 82.13786925 -48.76171875 84.98828125 C-54.92955259 94.81929947 -61.05881179 104.66619355 -66.9921875 114.640625 C-70.27202711 120.12829439 -73.63562724 125.56383366 -77 131 C-77.33 130.34 -77.66 129.68 -78 129 C-77.04711914 126.79199219 -77.04711914 126.79199219 -75.53515625 124.046875 C-74.71253296 122.54060547 -74.71253296 122.54060547 -73.87329102 121.00390625 C-72.97694946 119.39322266 -72.97694946 119.39322266 -72.0625 117.75 C-71.45784912 116.65042969 -70.85319824 115.55085938 -70.23022461 114.41796875 C-68.49652608 111.27313104 -66.75136432 108.13502714 -65 105 C-64.61070312 104.30197266 -64.22140625 103.60394531 -63.8203125 102.88476562 C-61.96816743 99.57683452 -60.08099227 96.29007508 -58.17285156 93.01416016 C-56.75438569 90.5782019 -55.34245617 88.1384855 -53.9296875 85.69921875 C-10.01685664 10.01685664 -10.01685664 10.01685664 0 0 Z " fill="#EEEFE6" transform="translate(503,311)"></path>
<path d="M0 0 C1.04449911 3.13349732 0.93423645 3.98968256 0 7 C1.32 7.66 2.64 8.32 4 9 C4 9.33 4 9.66 4 10 C5.5627962 9.85737588 7.12522696 9.71074489 8.6875 9.5625 C9.55761719 9.48128906 10.42773438 9.40007812 11.32421875 9.31640625 C13.95890726 9.05178979 13.95890726 9.05178979 16.33984375 8.47265625 C19.85530435 7.84802962 23.31780089 7.85505309 26.875 7.875 C27.55691406 7.87113281 28.23882812 7.86726562 28.94140625 7.86328125 C33.39055248 7.87175581 37.60958055 8.27781612 42 9 C42 9.33 42 9.66 42 10 C41.29206299 9.99887207 40.58412598 9.99774414 39.85473633 9.99658203 C24.33142319 10.05425689 10.59592716 11.24499241 -4.04663086 16.57861328 C-6.34509708 17.07444539 -7.78806793 16.7260847 -10 16 C-9.59481528 10.46247547 -7.55185194 7.08875979 -4 3 C-1.6875 1.0625 -1.6875 1.0625 0 0 Z " fill="#226468" transform="translate(374,200)"></path>
<path d="M0 0 C2.5390625 1.171875 2.5390625 1.171875 5.078125 2.34375 C7.29242836 3.21542924 7.29242836 3.21542924 11 3 C11.66 4.65 12.32 6.3 13 8 C10.81321095 10.52709628 8.62767838 12.92608855 6 15 C3.0625 14.9375 3.0625 14.9375 1 14 C-0.04976964 10.85069107 -0.10131595 8.61185544 -0.0625 5.3125 C-0.05347656 4.31863281 -0.04445313 3.32476562 -0.03515625 2.30078125 C-0.02355469 1.54152344 -0.01195312 0.78226562 0 0 Z " fill="#25696C" transform="translate(310,323)"></path>
<path d="M0 0 C3.362648 6.00472858 4.25001949 11.87257393 4.1953125 18.68359375 C4.1924826 19.38396255 4.18965271 20.08433136 4.18673706 20.80592346 C4.17564885 23.0166317 4.15056703 25.22691671 4.125 27.4375 C4.11495546 28.94725972 4.1058322 30.45702588 4.09765625 31.96679688 C4.07574714 35.64466597 4.04129758 39.3222916 4 43 C0.72061591 39.77788106 0.61812596 36.95705632 0.50764465 32.60064697 C0.50125473 31.76821472 0.49486481 30.93578247 0.48828125 30.078125 C0.47033005 29.21813904 0.45237885 28.35815308 0.43388367 27.47210693 C0.37979962 24.73145416 0.34589137 21.99097535 0.3125 19.25 C0.27932521 17.38929872 0.2448354 15.52862039 0.20898438 13.66796875 C0.12407431 9.11210472 0.05725416 4.55629212 0 0 Z " fill="#3B787A" transform="translate(671,362)"></path>
<path d="M0 0 C0.33 0 0.66 0 1 0 C1 1.98 1 3.96 1 6 C1.66 6 2.32 6 3 6 C3 5.34 3 4.68 3 4 C4.32 3.67 5.64 3.34 7 3 C7.33 3.99 7.66 4.98 8 6 C7.34 6 6.68 6 6 6 C6 6.99 6 7.98 6 9 C6.68707031 8.69964844 7.37414062 8.39929688 8.08203125 8.08984375 C9.43361328 7.51943359 9.43361328 7.51943359 10.8125 6.9375 C11.70582031 6.55464844 12.59914063 6.17179687 13.51953125 5.77734375 C16 5 16 5 19 6 C6.29844961 11.83979328 6.29844961 11.83979328 0 11 C-1.89885096 9.10114904 -1.12367506 6.42752097 -1.1328125 3.91015625 C-1 2 -1 2 0 0 Z " fill="#1D5E62" transform="translate(577,475)"></path>
<path d="M0 0 C0.33 0 0.66 0 1 0 C1.21755666 5.4389165 1.10428384 9.87080814 -1 15 C-1.66 15 -2.32 15 -3 15 C-3.20625 15.845625 -3.4125 16.69125 -3.625 17.5625 C-5.33861355 21.84653389 -7.86932356 24.67242567 -11 28 C-11.66 27.67 -12.32 27.34 -13 27 C-12.113125 26.113125 -11.22625 25.22625 -10.3125 24.3125 C-4.55231796 17.62633124 -2.15654309 8.43012299 0 0 Z " fill="#1F5F64" transform="translate(510,413)"></path>
<path d="M0 0 C0.99 0.33 1.98 0.66 3 1 C-2.60134853 10.37447913 -8.25300579 19.71398484 -14 29 C-14.33 28.34 -14.66 27.68 -15 27 C-13.9519043 24.61743164 -13.9519043 24.61743164 -12.32421875 21.66015625 C-11.74349609 20.59732422 -11.16277344 19.53449219 -10.56445312 18.43945312 C-9.94505859 17.32505859 -9.32566406 16.21066406 -8.6875 15.0625 C-8.07970703 13.95197266 -7.47191406 12.84144531 -6.84570312 11.69726562 C-2.38497741 3.57746611 -2.38497741 3.57746611 0 0 Z " fill="#E9EFED" transform="translate(440,413)"></path>
<path d="M0 0 C0.33 0.66 0.66 1.32 1 2 C1.66 2 2.32 2 3 2 C3 2.99 3 3.98 3 5 C2.34 5 1.68 5 1 5 C1 5.66 1 6.32 1 7 C0.01 7.33 -0.98 7.66 -2 8 C-3.3715383 9.95626937 -4.47040373 11.99733483 -5.62109375 14.08984375 C-7.19430498 16.26916469 -8.53705688 17.00122689 -11 18 C-9.48103632 13.56829827 -7.07360191 9.96975924 -4.375 6.1875 C-3.95476562 5.59001953 -3.53453125 4.99253906 -3.1015625 4.37695312 C-2.07220272 2.91479435 -1.0367177 1.45695101 0 0 Z " fill="#206267" transform="translate(487,344)"></path>
<path d="M0 0 C0.99 0 1.98 0 3 0 C4.75 1.8125 4.75 1.8125 6 4 C5.67 4.99 5.34 5.98 5 7 C4.34 7 3.68 7 3 7 C2.01 8.485 2.01 8.485 1 10 C-0.32 9.34 -1.64 8.68 -3 8 C-4.32 9.32 -5.64 10.64 -7 12 C-5.52410328 7.57230983 -3.26930159 3.3663135 0 0 Z " fill="#25686B" transform="translate(510,310)"></path>
<path d="M0 0 C0.66 0.33 1.32 0.66 2 1 C1.01 1.8971875 1.01 1.8971875 0 2.8125 C-2.3373846 4.87501834 -2.3373846 4.87501834 -2 8 C-2.56847656 8.27972656 -3.13695312 8.55945313 -3.72265625 8.84765625 C-9.4510136 11.82181173 -13.69782259 15.19982135 -18 20 C-18 17 -18 17 -15.5859375 14.2578125 C-14.52325233 13.20578082 -13.45255472 12.16179615 -12.375 11.125 C-11.85292969 10.60808594 -11.33085937 10.09117187 -10.79296875 9.55859375 C-7.34219404 6.17598249 -3.74742381 3.04970527 0 0 Z " fill="#1B595F" transform="translate(395,177)"></path>
<path d="M0 0 C-7.8269413 5.62380227 -16.55395654 10.69608696 -26 13 C-28.16015625 12.5390625 -28.16015625 12.5390625 -30 12 C-27.37646482 10.99600476 -24.75132205 9.99665555 -22.125 9 C-21.37863281 8.71382813 -20.63226562 8.42765625 -19.86328125 8.1328125 C-14.2265625 6 -14.2265625 6 -12 6 C-11.34 4.68 -10.68 3.36 -10 2 C-10 2.66 -10 3.32 -10 4 C-6.95865509 2.33075929 -6.95865509 2.33075929 -6 0 C-2.49056604 -1.24528302 -2.49056604 -1.24528302 0 0 Z " fill="#0F4B52" transform="translate(539,495)"></path>
<path d="M0 0 C1.33333333 0 2.66666667 0 4 0 C4 1.65 4 3.3 4 5 C4.66 5.33 5.32 5.66 6 6 C4.03533587 7.06775224 2.03144641 8.06553465 0 9 C-0.66 8.67 -1.32 8.34 -2 8 C-2.99 8.495 -2.99 8.495 -4 9 C-3.47557578 5.2241456 -2.67345333 2.77627845 0 0 Z " fill="#26696C" transform="translate(321,360)"></path>
<path d="M0 0 C1.051875 -0.02126953 1.051875 -0.02126953 2.125 -0.04296875 C4 0.1875 4 0.1875 6 2.1875 C0.555 2.6825 0.555 2.6825 -5 3.1875 C-5.33 4.1775 -5.66 5.1675 -6 6.1875 C-6.99 6.1875 -7.98 6.1875 -9 6.1875 C-9.66 7.5075 -10.32 8.8275 -11 10.1875 C-10.52048204 5.87183833 -9.29764982 3.9855059 -6 1.1875 C-3.77109005 0.07304502 -2.46944894 0.02269714 0 0 Z " fill="#F3F3EA" transform="translate(559,348.8125)"></path>
<path d="M0 0 C0 3.20395416 -0.74335022 5.09399739 -2 8 C-0.35 6.68 1.3 5.36 3 4 C1.74155722 7.88019859 0.57583797 9.9411842 -3 12 C-3.99 12 -4.98 12 -6 12 C-6.66 12.66 -7.32 13.32 -8 14 C-7.37606349 10.23880524 -5.65226285 7.81039958 -3.4375 4.75 C-2.79683594 3.85796875 -2.15617187 2.9659375 -1.49609375 2.046875 C-0.75552734 1.03367187 -0.75552734 1.03367187 0 0 Z " fill="#F9F9F2" transform="translate(503,311)"></path>
<path d="M0 0 C0.33 0.66 0.66 1.32 1 2 C3.01669827 3.13350534 3.01669827 3.13350534 5 4 C4.01 4.33 3.02 4.66 2 5 C2 5.66 2 6.32 2 7 C-1.96 8.98 -1.96 8.98 -6 11 C-4.54955729 6.89041233 -2.48889248 3.56741255 0 0 Z " fill="#226468" transform="translate(468,373)"></path>
<path d="M0 0 C0.33 0.99 0.66 1.98 1 3 C1.66 2.67 2.32 2.34 3 2 C1.54955729 6.10958767 -0.51110752 9.43258745 -3 13 C-4.11329523 9.66011432 -4.01098929 7.3699643 -3 4 C-1.4375 1.6875 -1.4375 1.6875 0 0 Z " fill="#F5F5EE" transform="translate(472,359)"></path>
<path d="M0 0 C4.59808129 0.53894425 7.86784369 1.76571528 11.875 4.0625 C12.84179688 4.61035156 13.80859375 5.15820312 14.8046875 5.72265625 C15.89136719 6.35494141 15.89136719 6.35494141 17 7 C16.01 7.495 16.01 7.495 15 8 C14.113125 7.525625 13.22625 7.05125 12.3125 6.5625 C8.58513419 4.80430858 6.06912977 4.75585221 2 5 C1.34 3.35 0.68 1.7 0 0 Z " fill="#1C5C60" transform="translate(659,215)"></path>
<path d="M0 0 C1.07314453 0.10828125 1.07314453 0.10828125 2.16796875 0.21875 C2.82796875 1.20875 3.48796875 2.19875 4.16796875 3.21875 C1.41770458 3.27279449 -1.33149328 3.31244306 -4.08203125 3.34375 C-4.85933594 3.36050781 -5.63664062 3.37726563 -6.4375 3.39453125 C-13.55634269 3.45537606 -13.55634269 3.45537606 -16.83203125 1.21875 C-14.60303338 1.04984082 -12.37382463 0.88371313 -10.14453125 0.71875 C-8.28248047 0.57953125 -8.28248047 0.57953125 -6.3828125 0.4375 C-4.25425169 0.30636754 -2.12626282 0.16423547 0 0 Z " fill="#337779" transform="translate(491.83203125,143.78125)"></path>
<path d="M0 0 C0.66 0.33 1.32 0.66 2 1 C1.175 1.763125 0.35 2.52625 -0.5 3.3125 C-3.34055197 5.75434142 -3.34055197 5.75434142 -3 9 C-3.66 9.66 -4.32 10.32 -5 11 C-5.66 11 -6.32 11 -7 11 C-7.99 11.495 -7.99 11.495 -9 12 C-7.54718935 6.67302761 -3.91888622 3.63597198 0 0 Z " fill="#215E62" transform="translate(331,348)"></path>
<path d="M0 0 C2 2 2 2 2.5 5.5625 C2.665 6.696875 2.83 7.83125 3 9 C3.66 9.33 4.32 9.66 5 10 C4.34 10.66 3.68 11.32 3 12 C2.01 12 1.02 12 0 12 C-0.33 12.99 -0.66 13.98 -1 15 C-1.33 14.34 -1.66 13.68 -2 13 C-1.690625 12.29875 -1.38125 11.5975 -1.0625 10.875 C0.34430688 7.06834608 0.13712735 4.04525681 0 0 Z " fill="#1B5C61" transform="translate(404,378)"></path>
<path d="M0 0 C1.09375 3.7265625 1.09375 3.7265625 0.25 6.1875 C-1 8 -1 8 -4 9 C-5.37195574 10.29355827 -6.71182656 11.62298702 -8 13 C-6.40956621 7.91061189 -3.2553049 4.12543357 0 0 Z " fill="#1A5A5F" transform="translate(502,322)"></path>
<path d="M0 0 C0.5534764 2.07553648 1 3.84365964 1 6 C-1.97 6 -4.94 6 -8 6 C-5.51047079 3.33264727 -3.36591866 1.44253657 0 0 Z M-7 7 C-5 8 -5 8 -5 8 Z " fill="#206064" transform="translate(417,162)"></path>
<path d="M0 0 C-2.77280706 3.08089673 -5.06326356 4.68775452 -9 6 C-9.66 5.34 -10.32 4.68 -11 4 C-8.32997607 0.73663741 -4.08378642 -2.04189321 0 0 Z " fill="#E8E9DF" transform="translate(503,322)"></path>
<path d="M0 0 C1 3 1 3 -0.14453125 5.4453125 C-0.69496094 6.32960938 -1.24539063 7.21390625 -1.8125 8.125 C-2.35519531 9.01445312 -2.89789062 9.90390625 -3.45703125 10.8203125 C-5 13 -5 13 -7 14 C-6.835 13.236875 -6.67 12.47375 -6.5 11.6875 C-5.90854604 8.96403764 -5.90854604 8.96403764 -6 6 C-5.01 6 -4.02 6 -3 6 C-2.01 4.02 -1.02 2.04 0 0 Z " fill="#1D5A5E" transform="translate(556,470)"></path>
<path d="M0 0 C0.66 0.33 1.32 0.66 2 1 C1.45773019 4.79588866 -0.20127563 6.47211993 -3 9 C-3.66 8.67 -4.32 8.34 -5 8 C-3.35 5.36 -1.7 2.72 0 0 Z " fill="#F4F6F0" transform="translate(453,391)"></path>
<path d="M0 0 C2.09375 -0.36328125 2.09375 -0.36328125 4.5 -0.3125 C5.69109375 -0.30669922 5.69109375 -0.30669922 6.90625 -0.30078125 C9 0 9 0 11 2 C8.35541621 3.32229189 6.32238699 3.09677194 3.375 3.0625 C2.37210937 3.05347656 1.36921875 3.04445313 0.3359375 3.03515625 C-0.43492187 3.02355469 -1.20578125 3.01195312 -2 3 C-1.34 2.01 -0.68 1.02 0 0 Z " fill="#3A7879" transform="translate(390,326)"></path>
<path d="M0 0 C1.23922223 3.71766668 0.57018942 5.43889537 -0.4375 9.1875 C-0.72496094 10.27417969 -1.01242187 11.36085938 -1.30859375 12.48046875 C-1.65083984 13.72763672 -1.65083984 13.72763672 -2 15 C-2.33 15 -2.66 15 -3 15 C-3 11.37 -3 7.74 -3 4 C-2.34 4 -1.68 4 -1 4 C-0.67 2.68 -0.34 1.36 0 0 Z " fill="#F6F6EF" transform="translate(314,292)"></path>
<path d="M0 0 C0.99 0.33 1.98 0.66 3 1 C2.01 2.485 2.01 2.485 1 4 C1.62056011 5.68437744 2.29289322 7.35008418 3 9 C3.125 11.8125 3.125 11.8125 3 14 C2.7525 13.484375 2.505 12.96875 2.25 12.4375 C0.60418384 9.22815849 -1.1976096 6.12414336 -3 3 C-2.01 2.01 -1.02 1.02 0 0 Z " fill="#1C5F62" transform="translate(439,292)"></path>
<path d="M0 0 C0.66 0.33 1.32 0.66 2 1 C-1.75 4 -1.75 4 -4 4 C-4.33 5.32 -4.66 6.64 -5 8 C-6.65 8 -8.3 8 -10 8 C-6.91367389 4.7373124 -4.06516496 1.97764782 0 0 Z " fill="#1B5B60" transform="translate(590,227)"></path>
<path d="M0 0 C-1.43160268 1.00842453 -2.87051453 2.00647891 -4.3125 3 C-5.51326172 3.8353125 -5.51326172 3.8353125 -6.73828125 4.6875 C-9 6 -9 6 -12 6 C-11.34 4.68 -10.68 3.36 -10 2 C-10 2.66 -10 3.32 -10 4 C-6.95865509 2.33075929 -6.95865509 2.33075929 -6 0 C-2.49056604 -1.24528302 -2.49056604 -1.24528302 0 0 Z " fill="#1A5A5E" transform="translate(539,495)"></path>
<path d="M0 0 C2 1 2 1 2.625 2.625 C3.12095645 5.7660575 3.06103811 8.82601831 3 12 C2.34 11.01 1.68 10.02 1 9 C0.34 9 -0.32 9 -1 9 C-0.67 6.03 -0.34 3.06 0 0 Z " fill="#1C5D62" transform="translate(650,382)"></path>
<path d="M0 0 C0.95397067 3.40394081 1.05552406 5.56954679 0 9 C-1.5625 10.8125 -1.5625 10.8125 -3 12 C-4.21386936 8.35839192 -3.6674695 7.66834531 -2.0625 4.3125 C-1.49208984 3.10013672 -1.49208984 3.10013672 -0.91015625 1.86328125 C-0.60980469 1.24839844 -0.30945313 0.63351563 0 0 Z " fill="#EAECE2" transform="translate(552,236)"></path>
<path d="M0 0 C1.36118461 2.24195113 2.06138028 3.47826762 1.75 6.125 C1 8 1 8 -1 10 C-1 8.68 -1 7.36 -1 6 C-1.66 5.67 -2.32 5.34 -3 5 C-2.01 3.35 -1.02 1.7 0 0 Z " fill="#E7E9E2" transform="translate(467,366)"></path>
<path d="M0 0 C0.99 0.33 1.98 0.66 3 1 C1.68 3.31 0.36 5.62 -1 8 C-1.99 7.67 -2.98 7.34 -4 7 C-2.68 4.69 -1.36 2.38 0 0 Z " fill="#E2EAE6" transform="translate(440,413)"></path>
<path d="M0 0 C0.33 0.99 0.66 1.98 1 3 C2.65 2.67 4.3 2.34 6 2 C5.67 2.66 5.34 3.32 5 4 C4.34 4 3.68 4 3 4 C2.67 4.99 2.34 5.98 2 7 C0.68 6.34 -0.64 5.68 -2 5 C-1.34 3.35 -0.68 1.7 0 0 Z " fill="#206568" transform="translate(316,370)"></path>
<path d="M0 0 C0.33 0.66 0.66 1.32 1 2 C0.00390625 3.9453125 0.00390625 3.9453125 -1.4375 6.125 C-1.91058594 6.84945313 -2.38367188 7.57390625 -2.87109375 8.3203125 C-3.24363281 8.87460937 -3.61617188 9.42890625 -4 10 C-4.33 9.34 -4.66 8.68 -5 8 C-4.0625 5.875 -4.0625 5.875 -3 4 C-3.66 3.67 -4.32 3.34 -5 3 C-3.35 2.01 -1.7 1.02 0 0 Z " fill="#1B5C60" transform="translate(469,361)"></path>
<path d="M0 0 C0.33 0.99 0.66 1.98 1 3 C1.66 3.33 2.32 3.66 3 4 C1.68 4.33 0.36 4.66 -1 5 C-1 5.66 -1 6.32 -1 7 C-1.99 7.33 -2.98 7.66 -4 8 C-2.25 2.25 -2.25 2.25 0 0 Z " fill="#206063" transform="translate(330,260)"></path>
<path d="M0 0 C2.6875 -0.3125 2.6875 -0.3125 5 0 C2.6875 2.5 2.6875 2.5 0 5 C-0.99 5 -1.98 5 -3 5 C-1.8125 2.5 -1.8125 2.5 0 0 Z " fill="#216165" transform="translate(617,463)"></path>
<path d="M0 0 C0.66 0 1.32 0 2 0 C1.33035714 7.09821429 1.33035714 7.09821429 -2 10 C-1.85950482 8.52031676 -1.71245174 7.04125484 -1.5625 5.5625 C-1.48128906 4.73878906 -1.40007812 3.91507812 -1.31640625 3.06640625 C-1 1 -1 1 0 0 Z " fill="#F4F4ED" transform="translate(464,372)"></path>
<path d="M0 0 C0.33 0.66 0.66 1.32 1 2 C-3.625 6.875 -3.625 6.875 -7 8 C-6.67 6.68 -6.34 5.36 -6 4 C-5.38125 3.896875 -4.7625 3.79375 -4.125 3.6875 C-1.63473516 3.12474627 -1.63473516 3.12474627 0 0 Z " fill="#F7F3E9" transform="translate(505,315)"></path>
<path d="M0 0 C0.33 0 0.66 0 1 0 C1.125 6.75 1.125 6.75 0 9 C-0.66 9 -1.32 9 -2 9 C-2.33 7.02 -2.66 5.04 -3 3 C-2.01 3 -1.02 3 0 3 C0 2.01 0 1.02 0 0 Z " fill="#1E5F64" transform="translate(555,220)"></path>
<path d="M0 0 C0.33 0.66 0.66 1.32 1 2 C0.0625 4.625 0.0625 4.625 -1 7 C-1.66 7 -2.32 7 -3 7 C-3.33 7.99 -3.66 8.98 -4 10 C-4.33 9.34 -4.66 8.68 -5 8 C-4.00390625 6.0546875 -4.00390625 6.0546875 -2.5625 3.875 C-2.08941406 3.15054687 -1.61632812 2.42609375 -1.12890625 1.6796875 C-0.75636719 1.12539063 -0.38382812 0.57109375 0 0 Z " fill="#1A595D" transform="translate(438,421)"></path>
<path d="M0 0 C1.65 0 3.3 0 5 0 C5 0.99 5 1.98 5 3 C5.99 3.33 6.98 3.66 8 4 C7.01 4.99 6.02 5.98 5 7 C3.9375 5.125 3.9375 5.125 3 3 C3.33 2.34 3.66 1.68 4 1 C2.68 0.67 1.36 0.34 0 0 Z " fill="#1E6066" transform="translate(492,145)"></path>
<path d="M0 0 C0.33 0 0.66 0 1 0 C1 2.64 1 5.28 1 8 C0.34 8 -0.32 8 -1 8 C-1.33 8.66 -1.66 9.32 -2 10 C-1.125 2.25 -1.125 2.25 0 0 Z " fill="#18595E" transform="translate(580,464)"></path>
</svg>
