<svg xmlns="http://www.w3.org/2000/svg" version="1.1" xmlns:xlink="http://www.w3.org/1999/xlink" width="1024" height="1024"><svg xmlns="http://www.w3.org/2000/svg" version="1.1" xmlns:xlink="http://www.w3.org/1999/xlink" width="1024" height="1024"><svg version="1.1" xmlns="http://www.w3.org/2000/svg" width="1024" height="1024">
<path d="M0 0 C337.92 0 675.84 0 1024 0 C1024 337.92 1024 675.84 1024 1024 C686.08 1024 348.16 1024 0 1024 C0 686.08 0 348.16 0 0 Z " fill="#F6EFDF" transform="translate(0,0)"></path>
<path d="M0 0 C2.49104367 1.90197152 4.76401241 3.88801088 7.02734375 6.0546875 C7.79304687 6.76882812 8.55875 7.48296875 9.34765625 8.21875 C20.98705988 20.01597605 26.43676099 34.88201818 26.33984375 51.2421875 C26.13650147 80.58355377 10.34899069 101.72847533 -6.97192383 124.16259766 C-13.10852239 132.13937094 -18.79614773 140.36933202 -24.40039062 148.72509766 C-25.9756113 151.05906592 -27.57161415 153.3772539 -29.17578125 155.69140625 C-56.21731339 194.72957513 -82.05497618 236.37879958 -102.97265625 279.0546875 C-102.52051758 278.30598389 -102.06837891 277.55728027 -101.60253906 276.78588867 C-92.99061283 262.53561691 -84.33943571 248.32063346 -75.38769531 234.28027344 C-73.92706016 231.98297356 -72.47590988 229.67992714 -71.02734375 227.375 C-47.71306145 190.28201501 -23.48481282 153.7221857 4.47167969 119.93505859 C5.47543202 118.72179737 6.47630347 117.50614421 7.47363281 116.28759766 C20.00147139 101.013037 33.84470662 86.47939307 50.02734375 75.0546875 C50.58309082 74.65991211 51.13883789 74.26513672 51.71142578 73.85839844 C72.56945332 59.25597639 96.62348181 50.25859724 122.3671875 54.703125 C136.12980599 57.58218262 147.18931971 64.09792869 157.02734375 74.0546875 C158.05601562 75.05048828 158.05601562 75.05048828 159.10546875 76.06640625 C180.34960135 98.02146455 183.51356848 128.8624942 183.23828125 157.82421875 C182.56041804 189.57918103 171.76892013 226.00631256 150.02734375 250.0546875 C149.51300781 250.62832031 148.99867188 251.20195312 148.46875 251.79296875 C147.99308594 252.20933594 147.51742188 252.62570312 147.02734375 253.0546875 C144.88988453 252.80322171 143.56808596 252.59542971 142.02734375 251.0546875 C140.82947821 244.11053947 140.83662685 237.14684909 140.69714355 230.11566162 C140.33471401 213.44242132 139.01057038 198.50182491 132.02734375 183.0546875 C131.60839844 182.12140625 131.18945312 181.188125 130.7578125 180.2265625 C123.94476313 166.48265887 111.14779544 153.88480102 96.578125 148.6796875 C90.7899831 147.26145977 85.4028364 147.00947074 79.90234375 149.4296875 C76.62942652 154.01177163 76.55916117 158.88503759 77.3671875 164.35546875 C80.27252093 175.0463362 89.75089972 182.95731368 97.46484375 190.3671875 C111.44001691 204.10419336 123.02989125 219.70227638 123.40820312 240.10644531 C123.35366509 263.47599366 114.32266466 283.54184273 98.02734375 300.17578125 C86.24039761 311.74129897 66.54318489 327.58862401 49.40234375 328.1796875 C46.02734375 328.0546875 46.02734375 328.0546875 45.02734375 327.0546875 C44.53312548 320.12752983 46.04712 314.15260666 47.83984375 307.4921875 C48.39439055 305.35219936 48.94648021 303.21157296 49.49609375 301.0703125 C49.76164062 300.03841797 50.0271875 299.00652344 50.30078125 297.94335938 C58.07602597 267.03049124 59.87128993 228.86650934 43.53515625 200.33984375 C40.6349063 195.94438722 37.06363407 193.46016387 32.02734375 192.0546875 C27.42707904 191.60496712 23.06062149 191.56354537 19.02734375 194.0546875 C12.58652474 207.14188358 19.76375418 222.8523471 23.85205078 235.6328125 C32.52702289 262.7690944 36.94184947 291.07310337 24.6953125 317.89453125 C22.29325891 322.4454946 19.46860428 326.24635918 16.02734375 330.0546875 C15.52976562 330.65539062 15.0321875 331.25609375 14.51953125 331.875 C-4.98646464 353.7334778 -39.27823614 354.5193932 -65.97265625 356.0546875 C-67.14489746 356.11978516 -68.31713867 356.18488281 -69.52490234 356.25195312 C-98.0391739 357.87501645 -123.37345869 362.81159265 -146.15234375 380.7734375 C-147.97265625 382.1796875 -147.97265625 382.1796875 -150.97265625 384.0546875 C-153.66015625 383.671875 -153.66015625 383.671875 -155.97265625 383.0546875 C-157.63386208 376.72796742 -159.0948457 370.4368192 -160.22265625 363.9921875 C-163.31636388 348.49224117 -170.00296555 334.42864147 -176.97241211 320.33056641 C-177.47522705 319.31269043 -177.97804199 318.29481445 -178.49609375 317.24609375 C-178.94903809 316.34060791 -179.40198242 315.43512207 -179.86865234 314.50219727 C-183.89803984 305.56928933 -183.27531959 292.34812849 -179.9375 283.2421875 C-173.07989014 267.69457 -161.12127631 258.33430447 -147.18701172 249.27270508 C-134.25663287 241.04117123 -134.25663287 241.04117123 -126.97265625 228.0546875 C-127.03757784 224.22431363 -127.46769808 221.91092091 -129.41015625 218.6171875 C-133.62832705 216.04513213 -137.17632324 216.14351078 -141.97265625 217.0546875 C-165.82826004 225.70874902 -182.4986278 246.23078926 -193.17578125 268.41796875 C-194.61942907 271.40186824 -196.21086634 274.24343632 -197.97265625 277.0546875 C-202.398163 276.29819062 -203.73953418 274.443066 -206.2578125 270.88671875 C-216.06449362 254.69117475 -222.07345834 237.80675335 -217.78515625 218.7421875 C-212.73753859 201.2281281 -200.98472054 189.09280315 -185.55859375 179.94140625 C-170.66638236 171.81725429 -154.38001328 168.87564311 -137.59765625 168.0546875 C-115.90939377 167.64446419 -115.90939377 167.64446419 -97.203125 158.3125 C-93.05511755 153.63020588 -91.57271851 150.61377188 -91.61328125 144.31640625 C-92.18322491 140.72947821 -94.17491674 139.18629856 -96.97265625 137.0546875 C-113.74334259 128.66934433 -145.69005832 141.59424697 -161.84765625 146.8828125 C-182.12721895 153.85786809 -199.79393166 164.87596291 -214.97265625 180.0546875 C-217.59765625 179.6796875 -217.59765625 179.6796875 -219.97265625 179.0546875 C-226.81993116 158.51286278 -215.92689934 129.38324929 -206.97265625 111.0546875 C-197.97562623 94.26174229 -184.06447798 81.44174151 -166.05078125 75.01171875 C-144.97468457 69.19668171 -123.98261387 74.32671145 -103.97753906 81.36132812 C-97.61078015 83.52453568 -91.72847672 85.01547893 -84.97265625 84.0546875 C-82.1970078 82.69706596 -82.1970078 82.69706596 -80.97265625 80.0546875 C-80.36708716 75.96709615 -80.65269809 73.7079354 -82.47265625 69.9921875 C-91.77934229 59.0568314 -106.5330107 54.01592948 -120.55273438 52.83789062 C-134.99139559 51.95470104 -147.38450084 53.67959907 -160.97167969 58.61743164 C-163.29923899 59.12605276 -164.73312841 58.79543991 -166.97265625 58.0546875 C-165.36767562 43.17608332 -146.96868889 28.22999505 -135.97265625 19.0546875 C-98.23697719 -11.26492033 -43.65473593 -28.56775097 0 0 Z " fill="#2B7073" transform="translate(530.97265625,157.9453125)"></path>
<path d="M0 0 C5.22864743 -0.07476069 10.45697628 -0.12888763 15.68603516 -0.16479492 C17.46082996 -0.17978093 19.23558837 -0.20017682 21.01025391 -0.22631836 C34.548918 -0.42059857 46.18630432 -0.1978561 57 9 C66.09963258 18.77515115 67.50230167 29.7278532 67.27734375 42.66015625 C66.81402627 53.21042536 62.56294789 61.79392046 54.9296875 68.9375 C49.98841373 73.06957563 45.25753243 75.51554888 39 77 C38.28908203 77.17273438 37.57816406 77.34546875 36.84570312 77.5234375 C33.32899899 78.11237079 29.88194781 78.14319473 26.328125 78.1328125 C25.60510193 78.13376923 24.88207886 78.13472595 24.137146 78.13571167 C22.6176342 78.13638931 21.09811944 78.13456417 19.57861328 78.13037109 C17.24374999 78.12498558 14.90907634 78.13034605 12.57421875 78.13671875 C11.09635374 78.13605851 9.61848885 78.13477846 8.140625 78.1328125 C7.08914276 78.13584885 7.08914276 78.13584885 6.01641846 78.13894653 C1.11497315 78.11497315 1.11497315 78.11497315 0 77 C-0.09496708 74.59651714 -0.12558862 72.22189018 -0.11352539 69.81811523 C-0.11367142 69.06694427 -0.11381744 68.31577332 -0.1139679 67.5418396 C-0.11326863 65.04739541 -0.10547564 62.55302497 -0.09765625 60.05859375 C-0.09579212 58.33366436 -0.09436819 56.60873443 -0.09336853 54.88380432 C-0.08954297 50.33487497 -0.07971238 45.78597733 -0.06866455 41.23706055 C-0.05845124 36.59879994 -0.05387108 31.96053423 -0.04882812 27.32226562 C-0.03809014 18.21482978 -0.02101327 9.10741752 0 0 Z " fill="#223C41" transform="translate(619,575)"></path>
<path d="M0 0 C4.29 0 8.58 0 13 0 C18.00113769 9.5943276 22.60480965 19.36098913 27.05142212 29.22280884 C27.64047754 30.52891523 28.2312687 31.83424024 28.82382202 33.13876343 C29.66814964 35.00018059 30.50507602 36.86474801 31.33984375 38.73046875 C31.82831787 39.81739014 32.31679199 40.90431152 32.82006836 42.02416992 C33.88471252 44.70924082 34.54970255 47.15558265 35 50 C35.66 50 36.32 50 37 50 C37.25944901 49.18800392 37.25944901 49.18800392 37.5241394 48.35960388 C39.37112533 42.6868598 41.47629553 37.17083484 43.7578125 31.66015625 C44.2805928 30.38790443 44.2805928 30.38790443 44.81393433 29.08995056 C45.54367662 27.31549925 46.27482267 25.54162461 47.00732422 23.76831055 C48.13155692 21.04662618 49.25169466 18.32328488 50.37109375 15.59960938 C51.08309999 13.86969561 51.79533142 12.1398745 52.5078125 10.41015625 C52.84322052 9.59563492 53.17862854 8.78111359 53.52420044 7.94190979 C55.88169712 2.23660576 55.88169712 2.23660576 57 0 C61.62 0 66.24 0 71 0 C72.03636747 3.10910242 72.31142386 5.70206811 72.57250977 8.96508789 C72.67253799 10.19389175 72.77256622 11.42269562 72.87562561 12.68873596 C72.9810825 14.03336065 73.08633756 15.37800117 73.19140625 16.72265625 C73.30186159 18.10690512 73.41253696 19.49113645 73.52342224 20.87535095 C73.75531345 23.78121265 73.98444617 26.68727558 74.21166992 29.59350586 C74.50116811 33.29330077 74.79753855 36.99250582 75.09605503 40.69158268 C75.32627386 43.55435421 75.5526924 46.41741708 75.77802849 49.28057671 C75.88569815 50.64282916 75.99452286 52.00499089 76.10458565 53.36705208 C76.71396196 60.93586717 77.12301745 68.40605586 77 76 C72.71 76 68.42 76 64 76 C63.42477531 70.1838817 62.85531601 64.36723722 62.29101562 58.55004883 C62.09855998 56.57431082 61.90457477 54.59872116 61.70898438 52.62329102 C61.4268877 49.77138003 61.150435 46.91896741 60.875 44.06640625 C60.78750488 43.19415909 60.70000977 42.32191193 60.60986328 41.42323303 C60.08549057 35.9217707 59.92191877 30.52668731 60 25 C59.34 25 58.68 25 58 25 C57.87117432 25.51449707 57.74234863 26.02899414 57.60961914 26.55908203 C55.10893601 35.68192681 51.19899823 44.2206327 47.4375 52.875 C46.7449648 54.48156491 46.05290383 56.08833433 45.36132812 57.6953125 C39.92463892 70.29597792 39.92463892 70.29597792 38 74 C35.69 74 33.38 74 31 74 C26.45971368 64.37500623 22.268538 54.63825021 18.1875 44.8125 C17.31150786 42.70891392 16.43482028 40.60562062 15.55744934 38.50260925 C14.77421587 36.6244357 13.99288641 34.74546848 13.21166992 32.86645508 C12.51791782 31.2252414 11.7968531 29.5937062 11 28 C9.85771096 30.28457808 9.73462334 31.90735027 9.51928711 34.44970703 C9.43927963 35.37051056 9.35927216 36.29131409 9.27684021 37.24002075 C9.19450638 38.23589203 9.11217255 39.23176331 9.02734375 40.2578125 C8.93997452 41.27600067 8.85260529 42.29418884 8.7625885 43.3432312 C8.48371973 46.60350698 8.21054915 49.86423217 7.9375 53.125 C7.74972334 55.33206313 7.56157706 57.53909486 7.37304688 59.74609375 C6.9110708 65.16370695 6.45420544 70.58173001 6 76 C1.71 76 -2.58 76 -7 76 C-6.33270213 62.1124856 -5.11263874 48.28257932 -3.84326172 34.4387207 C-3.4965947 30.65028628 -3.15627724 26.86131514 -2.81640625 23.07226562 C-2.59673172 20.65621564 -2.3766932 18.24019872 -2.15625 15.82421875 C-2.00464417 14.13059456 -2.00464417 14.13059456 -1.84997559 12.40275574 C-1.75317505 11.35678726 -1.65637451 10.31081879 -1.55664062 9.2331543 C-1.43125916 7.85778755 -1.43125916 7.85778755 -1.30334473 6.45463562 C-1 4 -1 4 0 0 Z " fill="#20393E" transform="translate(305,682)"></path>
<path d="M0 0 C3.3913621 0.03607832 5.71814031 0.25138376 8.36425781 2.49169922 C12.01876501 6.54687042 15.02374752 11.09242578 18.05273438 15.62255859 C20.86084913 19.76283135 23.88234998 23.74229668 26.875 27.75 C27.94194563 29.19916687 29.00703063 30.64970533 30.0703125 32.1015625 C34.96084304 38.77801926 39.85586761 45.4511831 44.75 52.125 C45.08 35.625 45.41 19.125 45.75 2.125 C50.37 2.125 54.99 2.125 59.75 2.125 C59.75 27.205 59.75 52.285 59.75 78.125 C45.75 78.125 45.75 78.125 42.25 75.29296875 C41.36914831 73.99720496 40.53737481 72.6671012 39.75 71.3125 C38.7734833 69.83764833 37.79555789 68.36372865 36.81640625 66.890625 C36.32156738 66.11138672 35.82672852 65.33214844 35.31689453 64.52929688 C32.62799783 60.40336127 29.63889797 56.50250805 26.6875 52.5625 C25.51528999 50.9699537 24.34470124 49.37621272 23.17578125 47.78125 C20.93524595 44.73041632 18.6826047 41.68923255 16.41796875 38.65625 C15.90306885 37.96345947 15.38816895 37.27066895 14.85766602 36.55688477 C13.89183607 35.25771387 12.92244266 33.96118216 11.94897461 32.66772461 C8.75 28.35035492 8.75 28.35035492 8.75 26.125 C8.09 26.125 7.43 26.125 6.75 26.125 C6.75 43.615 6.75 61.105 6.75 79.125 C2.79 79.125 -1.17 79.125 -5.25 79.125 C-6.92062089 77.45437911 -6.37569043 75.41946174 -6.38552856 73.18862915 C-6.38249222 72.13039444 -6.38249222 72.13039444 -6.37939453 71.05078125 C-6.38114685 70.31097015 -6.38289917 69.57115906 -6.38470459 68.80892944 C-6.3891231 66.35176277 -6.38618513 63.89466747 -6.3828125 61.4375 C-6.38348554 59.73738593 -6.38445557 58.03727195 -6.38571167 56.3371582 C-6.38718864 52.76935919 -6.38503411 49.20158517 -6.38037109 45.63378906 C-6.3746738 41.05011506 -6.37795281 36.46649961 -6.38394356 31.88282776 C-6.38754919 28.37080439 -6.38641057 24.85879502 -6.38381577 21.34677124 C-6.3831465 19.65619907 -6.38397489 17.96562564 -6.38629532 16.27505493 C-6.38882189 13.91640843 -6.38498121 11.55785805 -6.37939453 9.19921875 C-6.38141876 8.49372894 -6.38344299 7.78823914 -6.38552856 7.06137085 C-6.3601964 1.31721255 -5.71187535 0.82239043 0 0 Z " fill="#223A3F" transform="translate(467.25,679.875)"></path>
<path d="M0 0 C4.95 0 9.9 0 15 0 C22.17086983 17.20061067 28.95648755 34.53666939 35.625 51.9375 C36.23513947 53.52632492 36.23513947 53.52632492 36.85760498 55.14724731 C38.02508798 58.18953881 39.18901764 61.23316229 40.3515625 64.27734375 C40.70526917 65.19921478 41.05897583 66.12108582 41.42340088 67.07089233 C41.91111969 68.35245712 41.91111969 68.35245712 42.40869141 69.65991211 C42.69306061 70.40454208 42.97742981 71.14917206 43.27041626 71.91636658 C43.96713946 73.9061529 44.48867687 75.95470748 45 78 C40.05 78 35.1 78 30 78 C27.27705922 71.62258607 24.91054772 65.68691702 23 59 C13.1 59.33 3.2 59.66 -7 60 C-8.93272435 65.54858587 -8.93272435 65.54858587 -10.85913086 71.09936523 C-11.10026611 71.78716064 -11.34140137 72.47495605 -11.58984375 73.18359375 C-11.95903931 74.24404907 -11.95903931 74.24404907 -12.33569336 75.32592773 C-13 77 -13 77 -14 78 C-16.18639453 78.07258946 -18.37500389 78.08373783 -20.5625 78.0625 C-21.76003906 78.05347656 -22.95757812 78.04445313 -24.19140625 78.03515625 C-25.58166016 78.01775391 -25.58166016 78.01775391 -27 78 C-26.41465185 71.45922122 -24.27717979 65.73653073 -21.9921875 59.609375 C-21.58847931 58.51014709 -21.18477112 57.41091919 -20.76882935 56.27838135 C-19.47733891 52.76650398 -18.1763485 49.25823476 -16.875 45.75 C-16.02280517 43.43773295 -15.17123675 41.12523493 -14.3203125 38.8125 C-12.27054302 33.24565758 -10.21339243 27.6815806 -8.15368652 22.1184082 C-6.39204626 17.35670445 -4.63710604 12.59253933 -2.8828125 7.828125 C-2.58696259 7.02485779 -2.29111267 6.22159058 -1.98629761 5.39398193 C-1.32410959 3.59602067 -0.66203904 1.79801613 0 0 Z " fill="#223B40" transform="translate(423,575)"></path>
<path d="M0 0 C5.5122786 3.42986224 8.96722885 8.90168654 11 15 C11.81678485 26.16718966 10.94650368 34.2240626 3.9375 43.1875 C-2.32115132 49.74856514 -8.70052057 53.24780153 -17.80541992 53.59960938 C-18.59150635 53.60798828 -19.37759277 53.61636719 -20.1875 53.625 C-20.93555908 53.63595703 -21.68361816 53.64691406 -22.4543457 53.65820312 C-29.19635439 53.48569336 -34.28182318 51.28922138 -39.42578125 46.95703125 C-45.90718033 39.58997515 -48.8020816 32.81505263 -48.46875 22.8984375 C-47.04820513 14.11473503 -42.1983035 7.09665395 -35.3359375 1.625 C-24.43608244 -5.95750787 -11.73485383 -6.44969066 0 0 Z " fill="#FB7A62" transform="translate(684,461)"></path>
<path d="M0 0 C4.95 0 9.9 0 15 0 C17.70227738 7.02090267 20.40407602 14.04198932 23.10546875 21.06323242 C24.02070811 23.44186134 24.93606868 25.82044362 25.8515625 28.19897461 C28.05852053 33.93295165 30.26367621 39.66760599 32.46484375 45.40380859 C34.11449859 49.70202869 35.7738184 53.99630547 37.44140625 58.28759766 C38.17975213 60.19821721 38.91803696 62.10886036 39.65625 64.01953125 C40.16786682 65.32624031 40.16786682 65.32624031 40.68981934 66.65934753 C40.99649536 67.45601334 41.30317139 68.25267914 41.61914062 69.07348633 C42.02163025 70.1088427 42.02163025 70.1088427 42.43225098 71.16511536 C43 73 43 73 43 76 C38.38 76 33.76 76 29 76 C27.82905995 73.2100561 26.66309073 70.41821403 25.5 67.625 C25.16613281 66.8309375 24.83226562 66.036875 24.48828125 65.21875 C24.01455078 64.07792969 24.01455078 64.07792969 23.53125 62.9140625 C23.23798828 62.2123291 22.94472656 61.5105957 22.64257812 60.78759766 C22 59 22 59 22 57 C12.43 57.33 2.86 57.66 -7 58 C-8.93285685 63.87770544 -8.93285685 63.87770544 -10.85913086 69.75756836 C-11.10026611 70.48596924 -11.34140137 71.21437012 -11.58984375 71.96484375 C-11.83597412 72.7137085 -12.08210449 73.46257324 -12.33569336 74.23413086 C-13 76 -13 76 -14 77 C-16.18639453 77.07258946 -18.37500389 77.08373783 -20.5625 77.0625 C-21.76003906 77.05347656 -22.95757813 77.04445313 -24.19140625 77.03515625 C-25.58166016 77.01775391 -25.58166016 77.01775391 -27 77 C-26.41341626 70.45058021 -24.27422266 64.71187285 -21.9921875 58.57421875 C-21.58847931 57.47261917 -21.18477112 56.37101959 -20.76882935 55.23603821 C-19.47730258 51.71746106 -18.17610051 48.20254657 -16.875 44.6875 C-16.02284476 42.36675402 -15.17127666 40.04579236 -14.3203125 37.72460938 C-9.68054779 25.0965293 -4.94027102 12.51365557 0 0 Z " fill="#213A3F" transform="translate(629,682)"></path>
<path d="M0 0 C4.62 0 9.24 0 14 0 C14.01458252 1.49781006 14.02916504 2.99562012 14.04418945 4.53881836 C14.1023976 10.12450386 14.17962931 15.70979573 14.26245117 21.29516602 C14.29559475 23.70721014 14.32365918 26.11932985 14.34643555 28.53149414 C14.38017572 32.00960335 14.43250262 35.48702644 14.48828125 38.96484375 C14.49467117 40.03395493 14.5010611 41.1030661 14.50764465 42.20457458 C14.63336352 48.68531669 15.59385528 53.98850469 18 60 C18.33 60.99 18.66 61.98 19 63 C21.37625345 64.18391223 21.37625345 64.18391223 24 65 C25.485 65.495 25.485 65.495 27 66 C33.15406814 66.42441849 38.4173933 65.76932458 44 63 C48.53831484 58.57514304 49.10509828 54.71684816 49.20532227 48.58886719 C49.22526749 47.50804871 49.24521271 46.42723022 49.26576233 45.31365967 C49.29083107 43.57285126 49.29083107 43.57285126 49.31640625 41.796875 C49.33718735 40.60394836 49.35796844 39.41102173 49.37937927 38.1819458 C49.44476239 34.37135577 49.50370776 30.56069686 49.5625 26.75 C49.60569589 24.16665954 49.64931052 21.58332605 49.69335938 19 C49.80043237 12.66673726 49.90173174 6.33340523 50 0 C54.62 0 59.24 0 64 0 C64.12431099 7.75547553 64.21467738 15.5103612 64.2746582 23.26660156 C64.29968295 25.90081903 64.33371334 28.53496789 64.37719727 31.16894531 C64.4383772 34.97217819 64.46633202 38.77448695 64.48828125 42.578125 C64.51408768 43.74112122 64.5398941 44.90411743 64.56648254 46.10235596 C64.56945914 54.93198427 62.98955092 63.42071937 57.02290344 70.26934814 C48.60090296 78.22651048 38.91129151 79.38412262 27.67578125 79.27734375 C19.73655207 78.67831583 12.21666978 76.31240137 6.3984375 70.70703125 C1.40065769 64.60638941 -0.13106119 58.06010509 -0.11352539 50.29174805 C-0.11344986 49.17096359 -0.11337433 48.05017914 -0.11329651 46.89543152 C-0.10813522 45.6963063 -0.10297394 44.49718109 -0.09765625 43.26171875 C-0.0962413 42.02581497 -0.09482635 40.78991119 -0.09336853 39.51655579 C-0.08872618 36.24341655 -0.07975311 32.97032713 -0.06866455 29.69720459 C-0.05840404 26.35217752 -0.05394631 23.00714827 -0.04882812 19.66210938 C-0.03780907 13.10805099 -0.02054953 6.55403516 0 0 Z " fill="#20393E" transform="translate(536,575)"></path>
<path d="M0 0 C14.52 0 29.04 0 44 0 C44 3.63 44 7.26 44 11 C34.1 11 24.2 11 14 11 C14 17.6 14 24.2 14 31 C22.25 31 30.5 31 39 31 C39 34.96 39 38.92 39 43 C30.75 43 22.5 43 14 43 C14 50.26 14 57.52 14 65 C24.56 65 35.12 65 46 65 C46 68.63 46 72.26 46 76 C30.82 76 15.64 76 0 76 C0 50.92 0 25.84 0 0 Z " fill="#1F383D" transform="translate(400,682)"></path>
<path d="M0 0 C1 1 1 1 1.1328125 2.92578125 C1.13023437 3.71339844 1.12765625 4.50101563 1.125 5.3125 C1.12886719 6.48232422 1.12886719 6.48232422 1.1328125 7.67578125 C1.00499912 9.91251539 0.61913869 11.85266979 0 14 C-3.22107038 12.978685 -6.17022662 11.9132178 -9.1875 10.375 C-14.43937776 8.0991863 -20.59425375 7.90389776 -26.0390625 9.65625 C-27.96243422 10.60483068 -27.96243422 10.60483068 -30 13 C-30.83333333 16.5 -30.83333333 16.5 -30 20 C-26.17207989 25.11073515 -19.84730646 27.00010364 -14.17382812 29.46875 C-6.48939665 32.93796453 -0.15202147 36.99276803 3.34375 44.93359375 C5.4636689 51.60881457 3.73834865 57.79704503 1 64 C-2.59711089 70.08741842 -9.22615727 73.36983402 -15.875 75.3125 C-25.56839093 77.2856606 -33.94119065 75.83042247 -43 72 C-43.99 71.34 -44.98 70.68 -46 70 C-46.29296875 66.9609375 -46.29296875 66.9609375 -46.1875 63.375 C-46.14689453 61.59222656 -46.14689453 61.59222656 -46.10546875 59.7734375 C-46.05326172 58.40058594 -46.05326172 58.40058594 -46 57 C-42.61566925 57.56602047 -39.89986968 58.38673617 -36.875 60 C-31.18345735 63.01186693 -26.39113802 63.566555 -20 63 C-15.88724091 61.45771534 -14.44219062 60.66328593 -12 57 C-11.41630557 53.58461856 -11.41630557 53.58461856 -12 50 C-16.69245091 44.01443109 -23.63256172 41.42706275 -30.33984375 38.19335938 C-36.99021948 34.86817151 -42.38932618 31.35604224 -45 24 C-45.68422211 17.61985097 -45.95227318 11.31086709 -42 6 C-30.56123765 -6.14875449 -14.91518517 -7.33968598 0 0 Z " fill="#20393E" transform="translate(385,578)"></path>
<path d="M0 0 C24.64818763 0 24.64818763 0 30.046875 4.83203125 C30.60890625 5.48558594 31.1709375 6.13914062 31.75 6.8125 C32.32234375 7.45832031 32.8946875 8.10414063 33.484375 8.76953125 C38.86993191 16.69518329 38.08191503 28.20011371 36.3828125 37.30859375 C34.34287327 43.81654147 30.94166079 48.52812666 25 52 C18 54 18 54 0 54 C0 36.18 0 18.36 0 0 Z " fill="#F5EFDF" transform="translate(634,587)"></path>
<path d="M0 0 C5.58400233 3.1729323 8.16657652 7.01270795 10.875 12.6875 C12.69400047 21.28641131 12.12892375 29.2910837 7.5625 36.9375 C3.03900384 42.22769042 -1.89680173 44.6276889 -8.875 45.23828125 C-10.6384375 45.24408203 -10.6384375 45.24408203 -12.4375 45.25 C-13.613125 45.26675781 -14.78875 45.28351562 -16 45.30078125 C-22.30731354 44.63421289 -26.41011451 41.70677229 -30.4375 36.9375 C-35.37711365 30.30844194 -35.44289718 22.92681687 -34.4375 14.9375 C-32.434424 7.7533909 -28.83988168 3.80105074 -22.5234375 -0.00390625 C-15.48629862 -3.57518834 -7.09215206 -3.24790747 0 0 Z " fill="#1F353A" transform="translate(386.4375,789.0625)"></path>
<path d="M0 0 C20.79 0 41.58 0 63 0 C63 3.63 63 7.26 63 11 C54.75 11 46.5 11 38 11 C38 32.45 38 53.9 38 76 C33.38 76 28.76 76 24 76 C24 54.55 24 33.1 24 11 C16.08 11 8.16 11 0 11 C0 7.37 0 3.74 0 0 Z " fill="#1E373C" transform="translate(540,682)"></path>
<path d="M0 0 C4.95 0 9.9 0 15 0 C15 21.78 15 43.56 15 66 C24.9 66 34.8 66 45 66 C45 69.96 45 73.92 45 78 C38.75203746 78.02464455 32.50410297 78.04283343 26.25610352 78.05493164 C24.12881986 78.05997298 22.00153969 78.06680591 19.87426758 78.07543945 C16.82372174 78.08751379 13.77322155 78.09323014 10.72265625 78.09765625 C9.28672874 78.10539818 9.28672874 78.10539818 7.8217926 78.11329651 C6.94095505 78.11337204 6.06011749 78.11344757 5.15258789 78.11352539 C4.37315323 78.115746 3.59371857 78.11796661 2.79066467 78.12025452 C1 78 1 78 0 77 C-0.09496708 74.59651714 -0.12558862 72.22189018 -0.11352539 69.81811523 C-0.11367142 69.06694427 -0.11381744 68.31577332 -0.1139679 67.5418396 C-0.11326863 65.04739541 -0.10547564 62.55302497 -0.09765625 60.05859375 C-0.09579212 58.33366436 -0.09436819 56.60873443 -0.09336853 54.88380432 C-0.08954297 50.33487497 -0.07971238 45.78597733 -0.06866455 41.23706055 C-0.05845124 36.59879994 -0.05387108 31.96053423 -0.04882812 27.32226562 C-0.03809013 18.21482754 -0.02049304 9.10742137 0 0 Z " fill="#244147" transform="translate(480,575)"></path>
<path d="M0 0 C4.95 0 9.9 0 15 0 C15 21.45 15 42.9 15 65 C24.9 65 34.8 65 45 65 C45 68.63 45 72.26 45 76 C30.15 76 15.3 76 0 76 C0 50.92 0 25.84 0 0 Z " fill="#20383D" transform="translate(685,682)"></path>
<path d="M0 0 C22.71428571 0 22.71428571 0 28.875 5.625 C31.59543243 9.9456868 31.83834029 13.02523342 31 18 C29.21733485 22.22210168 26.55775836 24.22250288 23 27 C23.39380859 27.50974365 23.78761719 28.0194873 24.19335938 28.54467773 C25.96472593 30.84037928 27.73240594 33.13889275 29.5 35.4375 C30.12003906 36.23994141 30.74007812 37.04238281 31.37890625 37.86914062 C32.25869141 39.01479492 32.25869141 39.01479492 33.15625 40.18359375 C33.70087891 40.89056396 34.24550781 41.59753418 34.80664062 42.32592773 C36 44 36 44 36 45 C31.62762694 46.18612248 28.33874368 46.41193015 24 45 C19.52199167 40.64176584 16.37112333 35.04445894 13.25170898 29.67407227 C12.01489623 27.68806578 12.01489623 27.68806578 9 27 C9 32.94 9 38.88 9 45 C6.03 45 3.06 45 0 45 C0 30.15 0 15.3 0 0 Z " fill="#162C30" transform="translate(562,788)"></path>
<path d="M0 0 C1.23556641 0.01740234 1.23556641 0.01740234 2.49609375 0.03515625 C3.32238281 0.04417969 4.14867187 0.05320312 5 0.0625 C5.63808594 0.07410156 6.27617188 0.08570313 6.93359375 0.09765625 C8.55567744 3.96942706 10.17282131 7.84321701 11.78588867 11.71875 C12.33246674 13.0301539 12.88027029 14.34104787 13.42944336 15.65136719 C23.93359375 40.72268489 23.93359375 40.72268489 23.93359375 45.09765625 C20.96359375 45.09765625 17.99359375 45.09765625 14.93359375 45.09765625 C13.61359375 41.79765625 12.29359375 38.49765625 10.93359375 35.09765625 C4.99359375 34.76765625 -0.94640625 34.43765625 -7.06640625 34.09765625 C-7.37578125 35.54140625 -7.68515625 36.98515625 -8.00390625 38.47265625 C-8.52124272 40.88689311 -8.96125859 42.88736092 -10.06640625 45.09765625 C-13.03640625 45.09765625 -16.00640625 45.09765625 -19.06640625 45.09765625 C-15.41567721 33.72287669 -11.54917256 22.47325209 -7.19140625 11.34765625 C-6.79832275 10.34210693 -6.40523926 9.33655762 -6.00024414 8.30053711 C-2.76535549 0.13068788 -2.76535549 0.13068788 0 0 Z " fill="#192E32" transform="translate(694.06640625,787.90234375)"></path>
<path d="M0 0 C3.27365512 2.09849687 6.24483773 4.48967546 8 8 C8.96158242 17.20371749 7.80722701 25.01187154 3 33 C-0.7517181 37.21867014 -4.11602419 39.84557575 -9.8125 40.3125 C-13.13227327 40.28232024 -13.99044521 40.0060988 -16.9375 38.125 C-21.05146143 33.88637307 -20.39038586 29.50015168 -20.34375 23.81640625 C-19.52066455 14.67828706 -15.39990867 7.39990867 -9 1 C-5.79745853 -0.60127074 -3.54685436 -0.40701607 0 0 Z " fill="#F6F0E1" transform="translate(500,402)"></path>
<path d="M0 0 C0 2.64 0 5.28 0 8 C-1.36125 7.505 -1.36125 7.505 -2.75 7 C-9.05678861 5.22380239 -16.31232432 4.49490162 -22.125 7.75 C-26.41754178 12.90105014 -26.4270214 17.28146069 -26.31640625 23.859375 C-25.90715238 27.92159858 -24.84495138 30.07815805 -22 33 C-18.0209537 36.22625375 -15.04385687 36.49611707 -10 36 C-6.61675598 35.13935021 -3.30654055 34.11770385 0 33 C0 35.64 0 38.28 0 41 C-7.1020374 45.05830709 -15.59599583 45.43423807 -23.47265625 43.34375 C-29.42816434 40.68155756 -33.44122803 36.04669068 -36.375 30.3125 C-37.82281404 22.63908557 -38.03356733 15.1113941 -34.39453125 8.0390625 C-31.05051671 3.14949502 -27.00958296 -0.15962895 -21.5625 -2.4375 C-13.58489632 -3.69712163 -7.52022314 -2.98675529 0 0 Z " fill="#1F3539" transform="translate(667,790)"></path>
<path d="M0 0 C0 2.31 0 4.62 0 7 C-0.66 7.33 -1.32 7.66 -2 8 C-2.74378906 7.69964844 -3.48757813 7.39929688 -4.25390625 7.08984375 C-9.04441186 5.18863313 -13.93621581 5.31570484 -19 6 C-21.79154466 7.36428874 -22.91972215 8.5823798 -25 11 C-27.09717289 17.29151866 -27.10697555 24.62205253 -24.3125 30.625 C-20.67061552 34.36531379 -18.52873368 35.84712663 -13.25 36.375 C-8.54569028 36.21340157 -4.35276025 34.6927401 0 33 C0 35.64 0 38.28 0 41 C-8.27316975 44.36535719 -16.66463547 45.58084875 -25.375 43 C-31.32528427 38.46645008 -35.84221579 33.58991872 -37 26 C-37.71125544 18.58262184 -37.24530793 12.29681148 -33 6 C-23.62135422 -4.43623775 -12.55001363 -5.09275915 0 0 Z " fill="#1C3135" transform="translate(343,790)"></path>
<path d="M0 0 C3.46679688 0.04882812 3.46679688 0.04882812 6.93359375 0.09765625 C9.74152544 5.54484393 12.18907079 11.00101373 14.38671875 16.71875 C14.69180359 17.50411636 14.99688843 18.28948273 15.31121826 19.09864807 C15.9482426 20.74075594 16.58341704 22.38358257 17.21679688 24.02709961 C18.19096453 26.55427746 19.17118825 29.07904356 20.15234375 31.60351562 C20.77248642 33.20429115 21.39229061 34.80519785 22.01171875 36.40625 C22.45224579 37.5420475 22.45224579 37.5420475 22.90167236 38.70079041 C24.93359375 43.98122219 24.93359375 43.98122219 24.93359375 45.09765625 C21.63359375 45.09765625 18.33359375 45.09765625 14.93359375 45.09765625 C11.93359375 37.47265625 11.93359375 37.47265625 11.93359375 34.09765625 C5.99359375 34.42765625 0.05359375 34.75765625 -6.06640625 35.09765625 C-8.04640625 40.04765625 -8.04640625 40.04765625 -10.06640625 45.09765625 C-13.03640625 45.09765625 -16.00640625 45.09765625 -19.06640625 45.09765625 C-17.61979075 40.94763913 -16.15718049 36.80344142 -14.69140625 32.66015625 C-14.27890625 31.47615234 -13.86640625 30.29214844 -13.44140625 29.07226562 C-13.04179687 27.94755859 -12.6421875 26.82285156 -12.23046875 25.6640625 C-11.8638916 24.62193604 -11.49731445 23.57980957 -11.11962891 22.50610352 C-10.06640625 20.09765625 -10.06640625 20.09765625 -8.06640625 19.09765625 C-8.39640625 21.73765625 -8.72640625 24.37765625 -9.06640625 27.09765625 C-8.07640625 26.43765625 -7.08640625 25.77765625 -6.06640625 25.09765625 C-6.06640625 26.41765625 -6.06640625 27.73765625 -6.06640625 29.09765625 C-5.77765625 28.04578125 -5.48890625 26.99390625 -5.19140625 25.91015625 C-4.29415432 22.86946914 -3.30217206 20.01053281 -2.06640625 17.09765625 C-0.81099068 20.86390296 -1.69578667 22.46954559 -3.06640625 26.09765625 C0.56359375 26.09765625 4.19359375 26.09765625 7.93359375 26.09765625 C7.00359718 23.67785934 6.0649765 21.26203246 5.12109375 18.84765625 C4.72954102 17.82478516 4.72954102 17.82478516 4.33007812 16.78125 C2.90367495 13.15360736 1.50449504 10.09318088 -1.06640625 7.09765625 C-1.39640625 8.08765625 -1.72640625 9.07765625 -2.06640625 10.09765625 C-2.54078125 10.55140625 -3.01515625 11.00515625 -3.50390625 11.47265625 C-5.43733139 13.48341839 -6.14956265 15.4881783 -7.06640625 18.09765625 C-8.3862432 14.13814541 -7.10612519 11.69758113 -5.69140625 7.97265625 C-5.45679688 7.32683594 -5.2221875 6.68101562 -4.98046875 6.015625 C-2.80986344 0.13279128 -2.80986344 0.13279128 0 0 Z " fill="#172A2F" transform="translate(505.06640625,787.90234375)"></path>
<path d="M0 0 C0 2.64 0 5.28 0 8 C-0.78375 7.67 -1.5675 7.34 -2.375 7 C-6.99361869 5.72589829 -11.24249356 5.83076064 -16 6 C-16.33 7.65 -16.66 9.3 -17 11 C-13.85514455 13.8303699 -10.75231567 15.63382121 -6.9375 17.375 C-2.48898552 19.562794 0.00303012 21.27988936 2 26 C2.829566 30.05154111 2.89442748 33.38267907 0.859375 37.0625 C-2.22813849 40.96251704 -4.99847846 43.13435204 -10 44 C-16.49523263 44.58166262 -21.20772301 44.02205756 -27 41 C-27 38.36 -27 35.72 -27 33 C-26.45472656 33.22816406 -25.90945313 33.45632813 -25.34765625 33.69140625 C-19.61379154 35.87713587 -15.01262371 36.44947179 -9 35 C-8.67 34.67 -8.34 34.34 -8 34 C-7.91057881 30.57093761 -7.91057881 30.57093761 -9 27 C-11.79374017 24.82060361 -11.79374017 24.82060361 -15.3125 23.375 C-20.06931053 21.19102204 -23.20027962 19.51480333 -26 15 C-26.98798586 10.35065476 -26.6681352 6.25609417 -24.4375 2.0625 C-16.4299586 -4.71311195 -8.9978172 -3.78855461 0 0 Z " fill="#223A3E" transform="translate(435,790)"></path>
<path d="M0 0 C3.42735601 1.64269726 5.4628348 3.89047602 7.1328125 7.33984375 C8.94592392 12.90168554 8.89059296 19.41549089 6.875 24.9375 C4.59532362 28.66097143 2.96990118 30.16208279 -1 32 C-4.85533615 32.73237568 -8.31370948 32.90579937 -11.83984375 31.01171875 C-14.74443553 28.71787243 -16.71207171 26.43642685 -18 23 C-18.30078125 19.50390625 -18.30078125 19.50390625 -18.3125 15.5625 C-18.32925781 14.26441406 -18.34601563 12.96632813 -18.36328125 11.62890625 C-17.88989993 6.90018314 -16.5361522 4.47781731 -13.1484375 1.21875 C-9.03789938 -1.11304617 -4.56088344 -0.70624389 0 0 Z " fill="#F5F0E2" transform="translate(380,795)"></path>
<path d="M0 0 C12.54 0 25.08 0 38 0 C38 2.31 38 4.62 38 7 C33.38 7 28.76 7 24 7 C24 19.54 24 32.08 24 45 C21.03 45 18.06 45 15 45 C15 32.46 15 19.92 15 7 C10.05 7 5.1 7 0 7 C0 4.69 0 2.38 0 0 Z " fill="#1A3137" transform="translate(446,788)"></path>
<path d="M0 0 C0 3.20395416 -0.74335022 5.09399739 -2 8 C-0.35 6.68 1.3 5.36 3 4 C1.56161422 8.03966284 -0.39303953 11.27983244 -2.82421875 14.8046875 C-3.2024176 15.35662277 -3.58061646 15.90855804 -3.97027588 16.47721863 C-4.78273152 17.66236157 -5.59721754 18.84611471 -6.4135437 20.02859497 C-8.58384505 23.17411522 -10.73680316 26.33146411 -12.890625 29.48828125 C-13.32539658 30.1249321 -13.76016815 30.76158295 -14.20811462 31.41752625 C-24.28264586 46.19385969 -33.8994736 61.28057467 -43.39306641 76.43505859 C-45.18021094 79.28764755 -46.97110432 82.13786925 -48.76171875 84.98828125 C-54.92955259 94.81929947 -61.05881179 104.66619355 -66.9921875 114.640625 C-70.27202711 120.12829439 -73.63562724 125.56383366 -77 131 C-77.33 130.34 -77.66 129.68 -78 129 C-77.04711914 126.79199219 -77.04711914 126.79199219 -75.53515625 124.046875 C-74.71253296 122.54060547 -74.71253296 122.54060547 -73.87329102 121.00390625 C-72.97694946 119.39322266 -72.97694946 119.39322266 -72.0625 117.75 C-71.45784912 116.65042969 -70.85319824 115.55085938 -70.23022461 114.41796875 C-68.49652608 111.27313104 -66.75136432 108.13502714 -65 105 C-64.61070312 104.30197266 -64.22140625 103.60394531 -63.8203125 102.88476562 C-61.96816743 99.57683452 -60.08099227 96.29007508 -58.17285156 93.01416016 C-56.75438569 90.5782019 -55.34245617 88.1384855 -53.9296875 85.69921875 C-10.01685664 10.01685664 -10.01685664 10.01685664 0 0 Z " fill="#EEEFE6" transform="translate(503,311)"></path>
<path d="M0 0 C2.97 0 5.94 0 9 0 C9 14.85 9 29.7 9 45 C6.03 45 3.06 45 0 45 C0 30.15 0 15.3 0 0 Z " fill="#193035" transform="translate(609,788)"></path>
<path d="M0 0 C3.12942457 -0.45796457 5.23225198 -0.50559016 7.921875 1.265625 C13.82540057 6.29094015 13.82540057 6.29094015 14.203125 9.98828125 C14.30112297 14.84734721 14.22754343 18.10468896 11 22 C9.347645 23.35102868 7.68239842 24.68657276 6 26 C6.59071289 26.76461548 6.59071289 26.76461548 7.19335938 27.54467773 C8.96472593 29.84037928 10.73240594 32.13889275 12.5 34.4375 C13.12003906 35.23994141 13.74007812 36.04238281 14.37890625 36.86914062 C14.96542969 37.63291016 15.55195312 38.39667969 16.15625 39.18359375 C16.70087891 39.89056396 17.24550781 40.59753418 17.80664062 41.32592773 C19 43 19 43 19 44 C14.62829019 45.18594255 11.33916695 45.40716488 7 44 C2.52241454 39.68467389 -0.62698488 34.12143647 -3.74829102 28.78759766 C-5.04205446 26.7095039 -5.04205446 26.7095039 -8 25 C-4.04 24.505 -4.04 24.505 0 24 C0 23.34 0 22.68 0 22 C1.27875 22.04125 2.5575 22.0825 3.875 22.125 C6.01871492 22.24212873 6.01871492 22.24212873 8 22 C10.27216848 20.16262173 10.27216848 20.16262173 10.1953125 17.3984375 C10.17210937 16.40070312 10.14890625 15.40296875 10.125 14.375 C10.10695313 13.37210938 10.08890625 12.36921875 10.0703125 11.3359375 C10.04710937 10.56507813 10.02390625 9.79421875 10 9 C9.01 9.33 8.02 9.66 7 10 C6.87625 11.134375 6.7525 12.26875 6.625 13.4375 C6.41875 14.613125 6.2125 15.78875 6 17 C5.34 17.33 4.68 17.66 4 18 C4.09765625 16.01432292 4.1953125 14.02864583 4.29296875 12.04296875 C4.15214855 9.9354377 4.15214855 9.9354377 2.78125 8.3125 C0.63260158 6.72928538 -1.07386567 6.30492386 -3.6875 5.8125 C-4.89986328 5.57466797 -4.89986328 5.57466797 -6.13671875 5.33203125 C-6.75160156 5.22246094 -7.36648438 5.11289062 -8 5 C-8 4.67 -8 4.34 -8 4 C-5.03 4 -2.06 4 1 4 C1.33 3.34 1.66 2.68 2 2 C1.34 1.34 0.68 0.68 0 0 Z " fill="#1B2E32" transform="translate(579,789)"></path>
<path d="M0 0 C4.95 0 9.9 0 15 0 C15 21.78 15 43.56 15 66 C24.9 66 34.8 66 45 66 C45 69.96 45 73.92 45 78 C38.75203746 78.02464455 32.50410297 78.04283343 26.25610352 78.05493164 C24.12881986 78.05997298 22.00153969 78.06680591 19.87426758 78.07543945 C16.82372174 78.08751379 13.77322155 78.09323014 10.72265625 78.09765625 C9.28672874 78.10539818 9.28672874 78.10539818 7.8217926 78.11329651 C6.94095505 78.11337204 6.06011749 78.11344757 5.15258789 78.11352539 C4.37315323 78.115746 3.59371857 78.11796661 2.79066467 78.12025452 C1 78 1 78 0 77 C-0.09496708 74.59651714 -0.12558862 72.22189018 -0.11352539 69.81811523 C-0.11367142 69.06694427 -0.11381744 68.31577332 -0.1139679 67.5418396 C-0.11326863 65.04739541 -0.10547564 62.55302497 -0.09765625 60.05859375 C-0.09579212 58.33366436 -0.09436819 56.60873443 -0.09336853 54.88380432 C-0.08954297 50.33487497 -0.07971238 45.78597733 -0.06866455 41.23706055 C-0.05845124 36.59879994 -0.05387108 31.96053423 -0.04882812 27.32226562 C-0.03809013 18.21482754 -0.02049304 9.10742137 0 0 Z M2 1 C2 25.75 2 50.5 2 76 C15.86 76 29.72 76 44 76 C44 73.03 44 70.06 44 67 C34.43 66.67 24.86 66.34 15 66 C14.67 44.55 14.34 23.1 14 1 C10.04 1 6.08 1 2 1 Z " fill="#101D1F" transform="translate(480,575)"></path>
<path d="M0 0 C1.23556641 0.01740234 1.23556641 0.01740234 2.49609375 0.03515625 C3.32238281 0.04417969 4.14867187 0.05320312 5 0.0625 C5.63808594 0.07410156 6.27617187 0.08570313 6.93359375 0.09765625 C11.14125392 8.21242944 14.89566907 15.92932154 15.93359375 25.09765625 C16.52427818 27.46039396 17.22031894 29.76762521 17.93359375 32.09765625 C17.27359375 31.76765625 16.61359375 31.43765625 15.93359375 31.09765625 C15.93359375 30.10765625 15.93359375 29.11765625 15.93359375 28.09765625 C14.61359375 29.08765625 13.29359375 30.07765625 11.93359375 31.09765625 C12.26359375 31.75765625 12.59359375 32.41765625 12.93359375 33.09765625 C6.66359375 32.76765625 0.39359375 32.43765625 -6.06640625 32.09765625 C-2.67976915 28.71101915 -1.93265305 28.67802371 2.62109375 28.41015625 C3.61496094 28.34441406 4.60882813 28.27867187 5.6328125 28.2109375 C6.39207031 28.17355469 7.15132812 28.13617187 7.93359375 28.09765625 C5.86868959 20.46376815 3.33158268 13.69463964 -1.06640625 7.09765625 C-1.39640625 8.08765625 -1.72640625 9.07765625 -2.06640625 10.09765625 C-2.54078125 10.55140625 -3.01515625 11.00515625 -3.50390625 11.47265625 C-5.43733139 13.48341839 -6.14956265 15.4881783 -7.06640625 18.09765625 C-8.3862432 14.13814541 -7.10612519 11.69758113 -5.69140625 7.97265625 C-5.45679688 7.32683594 -5.2221875 6.68101562 -4.98046875 6.015625 C-2.80986344 0.13279128 -2.80986344 0.13279128 0 0 Z " fill="#1A2E33" transform="translate(505.06640625,787.90234375)"></path>
<path d="M0 0 C0.33 0.66 0.66 1.32 1 2 C0.67 2.99 0.34 3.98 0 5 C-0.47997857 10.89350737 -0.83750671 16.20091151 1.6875 21.625 C5.32938448 25.36531379 7.47126632 26.84712663 12.75 27.375 C17.45430972 27.21340157 21.64723975 25.6927401 26 24 C26 26.64 26 29.28 26 32 C17.72683025 35.36535719 9.33536453 36.58084875 0.625 34 C-5.34599545 29.45067014 -9.77767994 24.60554704 -11 17 C-11.12818352 14.30814604 -11.0946806 11.698397 -11 9 C-10.01 9.495 -10.01 9.495 -9 10 C-8.5859375 12.28515625 -8.5859375 12.28515625 -8.375 15.0625 C-8.30023438 15.98160156 -8.22546875 16.90070312 -8.1484375 17.84765625 C-8.07496094 18.91306641 -8.07496094 18.91306641 -8 20 C-6.35 20.33 -4.7 20.66 -3 21 C-1.77653471 19.10087671 -1.77653471 19.10087671 -2.4375 17.3125 C-4.02316493 10.79365527 -2.5110282 5.96369197 0 0 Z " fill="#152529" transform="translate(317,799)"></path>
<path d="M0 0 C0 2.64 0 5.28 0 8 C-1.36125 7.505 -1.36125 7.505 -2.75 7 C-8.72378738 5.30539501 -15.98439035 4.57132196 -21.6796875 7.26953125 C-25.87011825 10.39471782 -27.31208727 13.1322025 -28.1875 18.25 C-28.34605469 19.14203125 -28.50460937 20.0340625 -28.66796875 20.953125 C-28.77753906 21.62859375 -28.88710938 22.3040625 -29 23 C-29.33 23 -29.66 23 -30 23 C-30.33 21.35 -30.66 19.7 -31 18 C-31.99 18 -32.98 18 -34 18 C-34 21.3 -34 24.6 -34 28 C-34.33 28 -34.66 28 -35 28 C-35.738041 12.07061503 -35.738041 12.07061503 -31 6 C-30.34 6.66 -29.68 7.32 -29 8 C-28.71125 7.071875 -28.4225 6.14375 -28.125 5.1875 C-27 2 -27 2 -25 -1 C-16.24938519 -4.39309554 -8.58556933 -3.40987151 0 0 Z " fill="#264348" transform="translate(667,790)"></path>
<path d="M0 0 C0.66 0 1.32 0 2 0 C3.42627939 3.68366998 4.8503884 7.36817065 6.27246094 11.0534668 C6.75688538 12.30793105 7.24191004 13.56216368 7.72753906 14.81616211 C8.42409214 16.61511705 9.11833262 18.41496689 9.8125 20.21484375 C10.23144531 21.29886475 10.65039062 22.38288574 11.08203125 23.49975586 C12 26 12 26 12 27 C5.07 27 -1.86 27 -9 27 C-6.03 18.09 -3.06 9.18 0 0 Z " fill="#F4F0E4" transform="translate(429,594)"></path>
<path d="M0 0 C0.66 0 1.32 0 2 0 C3.50801568 3.93447709 5.00502914 7.87304977 6.5 11.8125 C7.14388672 13.49182617 7.14388672 13.49182617 7.80078125 15.20507812 C8.20683594 16.27822266 8.61289062 17.35136719 9.03125 18.45703125 C9.40830078 19.44678955 9.78535156 20.43654785 10.17382812 21.45629883 C11 24 11 24 11 27 C4.4 27 -2.2 27 -9 27 C-6.03 18.09 -3.06 9.18 0 0 Z " fill="#F3EFE3" transform="translate(635,700)"></path>
<path d="M0 0 C0.66 0.99 1.32 1.98 2 3 C2.99 3 3.98 3 5 3 C4.67 4.98 4.34 6.96 4 9 C4.33 9 4.66 9 5 9 C4.96519531 10.33804688 4.96519531 10.33804688 4.9296875 11.703125 C4.91164063 12.87359375 4.89359375 14.0440625 4.875 15.25 C4.85179687 16.41015625 4.82859375 17.5703125 4.8046875 18.765625 C4.99469694 21.91218125 5.51965355 23.31687206 7 26 C7.0777346 28.33203812 7.08967728 30.66839059 7 33 C9.31 33.33 11.62 33.66 14 34 C14 34.33 14 34.66 14 35 C9.93786405 35.97491263 7.72473599 36.33337856 3.875 34.5625 C-0.39642334 30.75536181 -3.19116932 26.42649203 -5 21 C-5.09528823 18.66824086 -5.12986188 16.33370026 -5.125 14 C-5.12886719 12.14375 -5.12886719 12.14375 -5.1328125 10.25 C-4.92780619 5.23337497 -3.57482667 3.34419269 0 0 Z " fill="#20383D" transform="translate(357,797)"></path>
<path d="M0 0 C11.88 0 23.76 0 36 0 C36 0.33 36 0.66 36 1 C24.78 1 13.56 1 2 1 C2 25.75 2 50.5 2 76 C14.87 75.67 27.74 75.34 41 75 C37.49132635 78.50867365 33.21146496 78.11599818 28.42779541 78.13894653 C27.73490417 78.1369223 27.04201294 78.13489807 26.328125 78.1328125 C25.60510193 78.13376923 24.88207886 78.13472595 24.137146 78.13571167 C22.6176342 78.13638931 21.09811944 78.13456417 19.57861328 78.13037109 C17.24374999 78.12498558 14.90907634 78.13034605 12.57421875 78.13671875 C11.09635374 78.13605851 9.61848885 78.13477846 8.140625 78.1328125 C7.08914276 78.13584885 7.08914276 78.13584885 6.01641846 78.13894653 C1.11497315 78.11497315 1.11497315 78.11497315 0 77 C-0.09496708 74.59651714 -0.12558862 72.22189018 -0.11352539 69.81811523 C-0.11367142 69.06694427 -0.11381744 68.31577332 -0.1139679 67.5418396 C-0.11326863 65.04739541 -0.10547564 62.55302497 -0.09765625 60.05859375 C-0.09579212 58.33366436 -0.09436819 56.60873443 -0.09336853 54.88380432 C-0.08954297 50.33487497 -0.07971238 45.78597733 -0.06866455 41.23706055 C-0.05665681 35.78388372 -0.05204837 30.33069632 -0.04621124 24.87751007 C-0.03650063 16.58498462 -0.01734435 8.29252884 0 0 Z " fill="#243132" transform="translate(619,575)"></path>
<path d="M0 0 C0.33 0 0.66 0 1 0 C1 21.12 1 42.24 1 64 C10.24 64 19.48 64 29 64 C31 66 31 66 31.23046875 68.53125 C31.21628906 69.5109375 31.20210937 70.490625 31.1875 71.5 C31.18105469 72.4796875 31.17460938 73.459375 31.16796875 74.46875 C31 77 31 77 30 79 C14.82 79 -0.36 79 -16 79 C-16 78.67 -16 78.34 -16 78 C-1.15 78 13.7 78 29 78 C29 74.04 29 70.08 29 66 C19.1 66 9.2 66 -1 66 C-1.04010881 49.8183237 -1.04010881 49.8183237 -1.04882812 42.94335938 C-1.05481585 38.24437334 -1.06191425 33.54540672 -1.07543945 28.84643555 C-1.0862708 25.05985743 -1.09227736 21.2733001 -1.09487724 17.48670769 C-1.09673105 16.03895681 -1.10035081 14.59120712 -1.10573006 13.14346504 C-1.11294367 11.12242865 -1.11340808 9.10137152 -1.11352539 7.08032227 C-1.115746 5.92782486 -1.11796661 4.77532745 -1.12025452 3.58790588 C-1 1 -1 1 0 0 Z " fill="#FCFBF4" transform="translate(496,575)"></path>
<path d="M0 0 C0.99 0.495 0.99 0.495 2 1 C3.87379605 1.07033769 5.75001102 1.0843022 7.625 1.0625 C8.62789063 1.05347656 9.63078125 1.04445313 10.6640625 1.03515625 C11.43492187 1.02355469 12.20578125 1.01195312 13 1 C13 1.33 13 1.66 13 2 C9.7 2 6.4 2 3 2 C3 25.76 3 49.52 3 74 C5.64 74 8.28 74 11 74 C11 57.5 11 41 11 24 C11.33 24 11.66 24 12 24 C12.33 41.49 12.66 58.98 13 77 C9.04 77 5.08 77 1 77 C-0.67335996 75.32664004 -0.11962895 73.28612091 -0.12442017 71.05252075 C-0.12082489 70.3454599 -0.11722961 69.63839905 -0.11352539 68.90991211 C-0.11367142 68.16849472 -0.11381744 67.42707733 -0.1139679 66.66319275 C-0.11326865 64.20121379 -0.10547574 61.73930957 -0.09765625 59.27734375 C-0.09579211 57.57483461 -0.09436819 55.87232493 -0.09336853 54.16981506 C-0.08954302 49.68006927 -0.07971247 45.19035562 -0.06866455 40.70062256 C-0.05845113 36.12268509 -0.05387106 31.54474244 -0.04882812 26.96679688 C-0.03809022 17.97785043 -0.02101341 8.98892788 0 0 Z " fill="#304B4E" transform="translate(461,682)"></path>
<path d="M0 0 C2.75 -0.125 2.75 -0.125 6 1 C9.34835131 6.31677602 10.53834201 11.80906687 10 18 C9.34 17.67 8.68 17.34 8 17 C7.67 17.99 7.34 18.98 7 20 C6.34 20 5.68 20 5 20 C4.375 18.125 4.375 18.125 4 16 C4.66 15.34 5.32 14.68 6 14 C4.68 13.67 3.36 13.34 2 13 C2.99 16.63 3.98 20.26 5 24 C1.04 24 -2.92 24 -7 24 C-6.525625 22.535625 -6.05125 21.07125 -5.5625 19.5625 C-4.49843276 16.06840013 -3.78794728 12.82666355 -3.5 9.1875 C-3.18968345 5.46370143 -2.26603399 3.05421972 0 0 Z " fill="#1F363C" transform="translate(697,791)"></path>
<path d="M0 0 C4.44087864 2.22043932 6.32978439 9.2004447 7.9921875 13.6640625 C8.69278578 15.76585733 9.35085807 17.88174737 10 20 C5.71 20 1.42 20 -3 20 C-2.67 18.35 -2.34 16.7 -2 15 C-2.33 17.31 -2.66 19.62 -3 22 C-3.66 22 -4.32 22 -5 22 C-5.33 21.01 -5.66 20.02 -6 19 C-6.66 19.99 -7.32 20.98 -8 22 C-9.15926382 17.74936599 -8.90949326 14.29942266 -8 10 C-7.34 9.67 -6.68 9.34 -6 9 C-5.09656316 7.11736119 -5.09656316 7.11736119 -4.375 4.9375 C-3.98441406 3.83728516 -3.98441406 3.83728516 -3.5859375 2.71484375 C-3.39257812 2.14894531 -3.19921875 1.58304688 -3 1 C-2.34 1.33 -1.68 1.66 -1 2 C-0.67 1.34 -0.34 0.68 0 0 Z " fill="#223E43" transform="translate(504,795)"></path>
<path d="M0 0 C1.1240625 0.08765625 2.248125 0.1753125 3.40625 0.265625 C6.22697129 0.70725308 8.07399494 1.29915383 10.5 2.75 C8.5 3.75 8.5 3.75 4.5 3.75 C5.16 4.41 5.82 5.07 6.5 5.75 C5.89671875 5.72679687 5.2934375 5.70359375 4.671875 5.6796875 C3.87265625 5.66164063 3.0734375 5.64359375 2.25 5.625 C1.06664062 5.59019531 1.06664062 5.59019531 -0.140625 5.5546875 C-2.70731941 5.7671622 -4.2916067 6.46345895 -6.5 7.75 C-6.58944342 11.59606725 -6.31149494 14.99683592 -5.5 18.75 C-5.5 19.74 -5.5 20.73 -5.5 21.75 C-7.75 22.0625 -7.75 22.0625 -10.5 21.75 C-13.20880011 19.55367559 -14.32535236 17.82611171 -14.88671875 14.3671875 C-15.07104213 10.10868172 -14.92565712 7.47969792 -12.75 3.75 C-8.46315778 -0.06052642 -5.72816201 -0.49924348 0 0 Z " fill="#264248" transform="translate(423.5,788.25)"></path>
<path d="M0 0 C1.04449911 3.13349732 0.93423645 3.98968256 0 7 C1.32 7.66 2.64 8.32 4 9 C4 9.33 4 9.66 4 10 C5.5627962 9.85737588 7.12522696 9.71074489 8.6875 9.5625 C9.55761719 9.48128906 10.42773438 9.40007812 11.32421875 9.31640625 C13.95890726 9.05178979 13.95890726 9.05178979 16.33984375 8.47265625 C19.85530435 7.84802962 23.31780089 7.85505309 26.875 7.875 C27.55691406 7.87113281 28.23882812 7.86726562 28.94140625 7.86328125 C33.39055248 7.87175581 37.60958055 8.27781612 42 9 C42 9.33 42 9.66 42 10 C41.29206299 9.99887207 40.58412598 9.99774414 39.85473633 9.99658203 C24.33142319 10.05425689 10.59592716 11.24499241 -4.04663086 16.57861328 C-6.34509708 17.07444539 -7.78806793 16.7260847 -10 16 C-9.59481528 10.46247547 -7.55185194 7.08875979 -4 3 C-1.6875 1.0625 -1.6875 1.0625 0 0 Z " fill="#226468" transform="translate(374,200)"></path>
<path d="M0 0 C8.23602484 -0.48447205 8.23602484 -0.48447205 11.5625 1.625 C13.43910956 4.72548536 13.59452734 6.43283597 13 10 C11.5625 12.375 11.5625 12.375 9 14 C5.91795759 14.32889265 3.11605929 14.18329761 0 14 C0 9.38 0 4.76 0 0 Z " fill="#F1EBDE" transform="translate(571,795)"></path>
<path d="M0 0 C-0.25 2.375 -0.25 2.375 -1 5 C-4.54687981 7.86478754 -7.09477506 7 -12 7 C-12 11.62 -12 16.24 -12 21 C-12.33 21 -12.66 21 -13 21 C-13.33 16.05 -13.66 11.1 -14 6 C-16.90497155 8.90497155 -16.3544517 11.95399306 -16.4140625 15.8515625 C-16.43342865 16.62559418 -16.4527948 17.39962585 -16.4727478 18.19711304 C-16.5325983 20.67296275 -16.57895011 23.14885883 -16.625 25.625 C-16.66317482 27.30210377 -16.70222625 28.97918784 -16.7421875 30.65625 C-16.83830409 34.77067353 -16.92231439 38.88518886 -17 43 C-15.68 43 -14.36 43 -13 43 C-13 37.72 -13 32.44 -13 27 C-12.67 27 -12.34 27 -12 27 C-12 32.61 -12 38.22 -12 44 C-13.98 44 -15.96 44 -18 44 C-18 29.81 -18 15.62 -18 1 C-5 0 -5 0 0 0 Z " fill="#28454A" transform="translate(582,788)"></path>
<path d="M0 0 C2.93447856 1.66287118 3.90053562 2.72501026 5.0625 5.9375 C5.38583997 7.28911935 5.69627621 8.64383796 6 10 C6.53929095 12.14643163 7.08109391 14.2922332 7.625 16.4375 C8.0844894 18.29138051 8.54321462 20.14545138 9 22 C8.34 21.67 7.68 21.34 7 21 C7 20.01 7 19.02 7 18 C5.68 18.99 4.36 19.98 3 21 C3.33 21.66 3.66 22.32 4 23 C-2.27 22.67 -8.54 22.34 -15 22 C-11.6133629 18.6133629 -10.8662468 18.58036746 -6.3125 18.3125 C-5.31863281 18.24675781 -4.32476562 18.18101562 -3.30078125 18.11328125 C-2.54152344 18.07589844 -1.78226563 18.03851562 -1 18 C0.19348577 14.41954269 -0.33945485 13.56357199 -1.625 10.125 C-3.16657031 5.39659599 -3.16657031 5.39659599 -1.6875 1.875 C-1.130625 1.25625 -0.57375 0.6375 0 0 Z " fill="#254248" transform="translate(514,798)"></path>
<path d="M0 0 C0 2.64 0 5.28 0 8 C-6.66788561 11.81022035 -13.46472016 11.79775115 -21 11 C-25.46640732 9.6380462 -28.35581102 7.96628346 -31 4 C-30.1028125 4.4640625 -30.1028125 4.4640625 -29.1875 4.9375 C-25.23497392 6.87827269 -25.23497392 6.87827269 -21 6 C-20.34 5.67 -19.68 5.34 -19 5 C-19.33 4.34 -19.66 3.68 -20 3 C-19.05640625 3.05220703 -19.05640625 3.05220703 -18.09375 3.10546875 C-11.50735644 3.31377337 -6.04945996 0 0 0 Z " fill="#182C2F" transform="translate(667,823)"></path>
<path d="M0 0 C6.93 0 13.86 0 21 0 C20.67 0.66 20.34 1.32 20 2 C14.06 1.67 8.12 1.34 2 1 C2 17.83 2 34.66 2 52 C5.96 52 9.92 52 14 52 C13.67 52.66 13.34 53.32 13 54 C8.71 54 4.42 54 0 54 C0 36.18 0 18.36 0 0 Z " fill="#FDFCF6" transform="translate(634,587)"></path>
<path d="M0 0 C-0.66 0.474375 -1.32 0.94875 -2 1.4375 C-2.99 2.2109375 -2.99 2.2109375 -4 3 C-4 3.33 -4 3.66 -4 4 C-1.36 4.33 1.28 4.66 4 5 C4 5.33 4 5.66 4 6 C3.40832031 6.09796875 2.81664062 6.1959375 2.20703125 6.296875 C-2.79709415 7.24382206 -6.43638794 8.11242321 -10 12 C-12.21829525 16.7693348 -12.56216294 21.8150874 -13 27 C-13.33 27 -13.66 27 -14 27 C-14.18451025 16.44191344 -14.18451025 16.44191344 -13 12 C-13.99 12.33 -14.98 12.66 -16 13 C-16.33 12.01 -16.66 11.02 -17 10 C-17.99 10.99 -18.98 11.98 -20 13 C-18.92815607 7.37281937 -16.34308367 5.32851999 -11.875 2.19921875 C-7.74341477 -0.44327431 -4.85496156 -0.07830583 0 0 Z " fill="#112125" transform="translate(374,788)"></path>
<path d="M0 0 C5.8022175 -0.36263859 9.63999211 0.74315457 15 3 C15 5.64 15 8.28 15 11 C14.21625 10.67 13.4325 10.34 12.625 10 C8.00638131 8.72589829 3.75750644 8.83076064 -1 9 C-1.33 10.65 -1.66 12.3 -2 14 C0.96283313 16.38672669 3.94270509 18.7353371 7 21 C5.35 20.67 3.7 20.34 2 20 C1.67 21.98 1.34 23.96 1 26 C-1.4375 25.625 -1.4375 25.625 -4 25 C-4.33 24.34 -4.66 23.68 -5 23 C-4.34 22.34 -3.68 21.68 -3 21 C-2.7499227 18.45809998 -2.7499227 18.45809998 -3 16 C-3.33 15.67 -3.66 15.34 -4 15 C-4.375 12.125 -4.375 12.125 -4 9 C-1.02723853 6.29748957 0.78774291 6.01043887 4.8125 5.8125 C5.864375 5.874375 6.91625 5.93625 8 6 C7.34 5.34 6.68 4.68 6 4 C9 3 9 3 10 3 C6.37 2.67 2.74 2.34 -1 2 C-0.67 1.34 -0.34 0.68 0 0 Z " fill="#17282B" transform="translate(420,787)"></path>
<path d="M0 0 C2.5390625 1.171875 2.5390625 1.171875 5.078125 2.34375 C7.29242836 3.21542924 7.29242836 3.21542924 11 3 C11.66 4.65 12.32 6.3 13 8 C10.81321095 10.52709628 8.62767838 12.92608855 6 15 C3.0625 14.9375 3.0625 14.9375 1 14 C-0.04976964 10.85069107 -0.10131595 8.61185544 -0.0625 5.3125 C-0.05347656 4.31863281 -0.04445313 3.32476562 -0.03515625 2.30078125 C-0.02355469 1.54152344 -0.01195312 0.78226562 0 0 Z " fill="#25696C" transform="translate(310,323)"></path>
<path d="M0 0 C0 2.64 0 5.28 0 8 C-0.9075 7.67 -1.815 7.34 -2.75 7 C-9.11000666 5.16613305 -16.64841897 5.10513692 -23 7 C-20.94766315 4.7522025 -19.99332739 3.9977758 -17 3 C-14.93854893 2.931009 -12.87498599 2.91532273 -10.8125 2.9375 C-9.18248047 2.95103516 -9.18248047 2.95103516 -7.51953125 2.96484375 C-6.68808594 2.97644531 -5.85664062 2.98804688 -5 3 C-5 2.34 -5 1.68 -5 1 C-5.66 1 -6.32 1 -7 1 C-7 0.34 -7 -0.32 -7 -1 C-8.43861294 -0.91253716 -9.87597508 -0.80434652 -11.3125 -0.6875 C-12.11300781 -0.62949219 -12.91351562 -0.57148437 -13.73828125 -0.51171875 C-16.39937691 0.09035989 -17.15565927 1.07299974 -19 3 C-19.99 3 -20.98 3 -22 3 C-22.33 2.34 -22.66 1.68 -23 1 C-23.99 0.67 -24.98 0.34 -26 0 C-16.54650723 -4.12516048 -9.54586686 -3.79126627 0 0 Z " fill="#1B2B2D" transform="translate(667,790)"></path>
<path d="M0 0 C4.62 0 9.24 0 14 0 C14 12.54 14 25.08 14 38 C13.01 38 12.02 38 11 38 C11 26.45 11 14.9 11 3 C7.7 3 4.4 3 1 3 C0.67 2.01 0.34 1.02 0 0 Z " fill="#DCDACD" transform="translate(447,795)"></path>
<path d="M0 0 C0.8353125 0.30744141 0.8353125 0.30744141 1.6875 0.62109375 C6.83617554 2.43878495 11.56276016 3.50570547 17 4 C16.505 4.474375 16.01 4.94875 15.5 5.4375 C13.88457803 6.75923698 13.88457803 6.75923698 14 8 C18.21878192 8.19622241 21.17010894 7.80230168 25 6 C21.65022432 9.70868022 19.5809033 10.7751977 14.66796875 11.203125 C8.94707175 11.31123644 5.08265857 10.65182186 0 8 C0 5.36 0 2.72 0 0 Z " fill="#16292C" transform="translate(408,823)"></path>
<path d="M0 0 C0.99 0 1.98 0 3 0 C2.96519531 1.33804688 2.96519531 1.33804688 2.9296875 2.703125 C2.91164063 3.87359375 2.89359375 5.0440625 2.875 6.25 C2.85179687 7.41015625 2.82859375 8.5703125 2.8046875 9.765625 C2.99469694 12.91218125 3.51965355 14.31687206 5 17 C5.0777346 19.33203812 5.08967728 21.66839059 5 24 C7.31 24.33 9.62 24.66 12 25 C12 25.33 12 25.66 12 26 C7.84852979 26.99635285 5.68224887 27.31488409 1.75 25.5 C-1.65894679 22.40095746 -2.64773268 20.37498251 -4 16 C-3.67 15.01 -3.34 14.02 -3 13 C-2.34 12.67 -1.68 12.34 -1 12 C-0.53101037 9.1840151 -0.53101037 9.1840151 -0.375 5.9375 C-0.30023438 4.83277344 -0.22546875 3.72804688 -0.1484375 2.58984375 C-0.09945313 1.73519531 -0.05046875 0.88054688 0 0 Z " fill="#2B4448" transform="translate(359,806)"></path>
<path d="M0 0 C1.051875 0.7425 1.051875 0.7425 2.125 1.5 C6.266633 3.660852 10.38848575 3.7403225 15 4 C14.34 4.66 13.68 5.32 13 6 C13.99 6.66 14.98 7.32 16 8 C11.98575735 9.33808088 8.18573976 9.19932094 4 9 C3.01 8.34 2.02 7.68 1 7 C0.67 7 0.34 7 0 7 C-2.18119262 6.50747263 -3.99258351 6.00370824 -6 5 C-6.625 2.4375 -6.625 2.4375 -7 0 C-3.763828 -1.078724 -3.08891354 -1.09020478 0 0 Z " fill="#254248" transform="translate(320,824)"></path>
<path d="M0 0 C0.99 0.66 1.98 1.32 3 2 C3.2578125 3.953125 3.2578125 3.953125 3.125 6.25 C2.99253658 9.97703905 3.24685317 13.32840922 4 17 C3.01 17 2.02 17 1 17 C-0.33981486 17.3062434 -1.67511887 17.63451555 -3 18 C-4.19016991 15.61966018 -4.27992056 13.77381329 -4.5 11.125 C-4.76322063 7.97575316 -5.14979874 5.04655451 -6 2 C-3.1875 0.875 -3.1875 0.875 0 0 Z " fill="#254147" transform="translate(312,803)"></path>
<path d="M0 0 C0.391875 0.556875 0.78375 1.11375 1.1875 1.6875 C3.27024419 4.34479432 5.58282693 6.64643674 8 9 C8.33 9.33 8.66 9.66 9 10 C10.85287502 10.07226502 12.70833878 10.0838122 14.5625 10.0625 C15.57441406 10.05347656 16.58632813 10.04445313 17.62890625 10.03515625 C18.41136719 10.02355469 19.19382812 10.01195312 20 10 C19.67 10.66 19.34 11.32 19 12 C16.9375 12.625 16.9375 12.625 15 13 C15 13.99 15 14.98 15 16 C17.31 16 19.62 16 22 16 C20 18 20 18 16.7421875 18.1953125 C15.46601563 18.17210937 14.18984375 18.14890625 12.875 18.125 C10.95300781 18.09792969 10.95300781 18.09792969 8.9921875 18.0703125 C7.51105469 18.03550781 7.51105469 18.03550781 6 18 C5.67 17.01 5.34 16.02 5 15 C4.505 14.5875 4.01 14.175 3.5 13.75 C1.22724467 11.09845211 1.35299621 8.41229671 1 5 C0.68033861 3.33065717 0.35268934 1.6626783 0 0 Z " fill="#182B2F" transform="translate(361,816)"></path>
<path d="M0 0 C2.64521932 2.64521932 3.44542519 5.66171349 4.625 9.125 C4.85445313 9.78371094 5.08390625 10.44242188 5.3203125 11.12109375 C5.88536242 12.74561226 6.44336277 14.37257971 7 16 C2.71 16 -1.58 16 -6 16 C-5.19110952 13.51960151 -4.37808099 11.04069788 -3.5625 8.5625 C-3.33240234 7.85544922 -3.10230469 7.14839844 -2.86523438 6.41992188 C-1.11328125 1.11328125 -1.11328125 1.11328125 0 0 Z " fill="#F1EBDD" transform="translate(507,799)"></path>
<path d="M0 0 C4.73224376 -0.04963625 9.46433415 -0.08583097 14.19677734 -0.10986328 C15.80487713 -0.11988763 17.41295885 -0.13351066 19.02099609 -0.15087891 C21.33956376 -0.17528488 23.65788929 -0.18651886 25.9765625 -0.1953125 C26.68930328 -0.20563507 27.40204407 -0.21595764 28.13638306 -0.22659302 C32.47509083 -0.2275565 35.96715817 0.40562067 40 2 C40 2.33 40 2.66 40 3 C26.8 3 13.6 3 0 3 C0 2.01 0 1.02 0 0 Z " fill="#E8E6DD" transform="translate(620,572)"></path>
<path d="M0 0 C0.66 0 1.32 0 2 0 C3.7938053 3.07902256 4.2305974 5.22177667 4.13525391 8.76855469 C4.11508209 9.70922791 4.09491028 10.64990112 4.0741272 11.61907959 C4.04193085 12.62650208 4.0097345 13.63392456 3.9765625 14.671875 C3.95153656 15.70942932 3.92651062 16.74698364 3.90072632 17.815979 C3.81859984 21.12765526 3.72198083 24.43872868 3.625 27.75 C3.566753 29.99606918 3.50944988 32.24216305 3.453125 34.48828125 C3.31303198 39.99252082 3.16104043 45.49633563 3 51 C1.515 51.495 1.515 51.495 0 52 C0 34.84 0 17.68 0 0 Z " fill="#CCCBBF" transform="translate(474,706)"></path>
<path d="M0 0 C0.66 0 1.32 0 2 0 C2.83719383 2.29032311 3.6698929 4.58210957 4.5 6.875 C4.73847656 7.52597656 4.97695313 8.17695312 5.22265625 8.84765625 C7 13.7734375 7 13.7734375 7 16 C3.04 16 -0.92 16 -5 16 C-3.40615011 10.63886855 -1.8106711 5.29273092 0 0 Z " fill="#F5F3EB" transform="translate(695,799)"></path>
<path d="M0 0 C0 2.64 0 5.28 0 8 C-8.37922582 11.40849864 -17.06496294 12.80951359 -25.75 9.625 C-28 8 -28 8 -29 6 C-27.02 6.66 -25.04 7.32 -23 8 C-22.67 7.34 -22.34 6.68 -22 6 C-21.505 6.7425 -21.505 6.7425 -21 7.5 C-17.82427253 9.88179561 -14.89753934 9.19168226 -11 9 C-10.814375 8.071875 -10.62875 7.14375 -10.4375 6.1875 C-9 3 -9 3 -5.5 1.125 C-2 0 -2 0 0 0 Z " fill="#17272A" transform="translate(343,823)"></path>
<path d="M0 0 C0.78375 0.185625 1.5675 0.37125 2.375 0.5625 C4.97089775 1.25962266 4.97089775 1.25962266 7 0 C9.1423215 -0.14833651 11.29024129 -0.22127413 13.4375 -0.25 C14.59121094 -0.27578125 15.74492188 -0.3015625 16.93359375 -0.328125 C20 0 20 0 21.91015625 1.515625 C22.26980469 2.00546875 22.62945313 2.4953125 23 3 C21.22882812 3.02126953 21.22882812 3.02126953 19.421875 3.04296875 C17.86454458 3.08987629 16.3072541 3.13812365 14.75 3.1875 C13.97269531 3.19330078 13.19539062 3.19910156 12.39453125 3.20507812 C10.15620944 3.29116743 8.16692898 3.4261733 6 4 C3.62929626 6.43033114 3.62929626 6.43033114 2 9 C1.01 9 0.02 9 -1 9 C-1.66 9.66 -2.32 10.32 -3 11 C-2.44894091 7.0507432 -1.61064629 3.65079826 0 0 Z " fill="#254248" transform="translate(682,817)"></path>
<path d="M0 0 C0 2.31 0 4.62 0 7 C-0.99 7.495 -0.99 7.495 -2 8 C-2.99 7.34 -3.98 6.68 -5 6 C-7.74877256 4.26929135 -9.94419855 3.87233176 -13.125 3.625 C-14.40375 3.41875 -15.6825 3.2125 -17 3 C-18.2421875 0.9609375 -18.2421875 0.9609375 -19 -1 C-16.95999027 -1.22397733 -14.91783811 -1.42848537 -12.875 -1.625 C-11.73804688 -1.74101563 -10.60109375 -1.85703125 -9.4296875 -1.9765625 C-5.83488201 -2.00112837 -3.319329 -1.32167811 0 0 Z " fill="#29464B" transform="translate(343,790)"></path>
<path d="M0 0 C3.362648 6.00472858 4.25001949 11.87257393 4.1953125 18.68359375 C4.1924826 19.38396255 4.18965271 20.08433136 4.18673706 20.80592346 C4.17564885 23.0166317 4.15056703 25.22691671 4.125 27.4375 C4.11495546 28.94725972 4.1058322 30.45702588 4.09765625 31.96679688 C4.07574714 35.64466597 4.04129758 39.3222916 4 43 C0.72061591 39.77788106 0.61812596 36.95705632 0.50764465 32.60064697 C0.50125473 31.76821472 0.49486481 30.93578247 0.48828125 30.078125 C0.47033005 29.21813904 0.45237885 28.35815308 0.43388367 27.47210693 C0.37979962 24.73145416 0.34589137 21.99097535 0.3125 19.25 C0.27932521 17.38929872 0.2448354 15.52862039 0.20898438 13.66796875 C0.12407431 9.11210472 0.05725416 4.55629212 0 0 Z " fill="#3B787A" transform="translate(671,362)"></path>
<path d="M0 0 C0.08107583 1.93681161 0.13922475 3.8745934 0.1875 5.8125 C0.23970703 7.43091797 0.23970703 7.43091797 0.29296875 9.08203125 C0 12 0 12 -1.27734375 13.87890625 C-3.73503744 15.4783577 -6.01092529 15.15511045 -8.859375 15.0390625 C-11.98812769 14.98196847 -14.91781969 15.48630328 -18 16 C-18.33 15.34 -18.66 14.68 -19 14 C-15.04 13.34 -11.08 12.68 -7 12 C-6.566875 10.39125 -6.13375 8.7825 -5.6875 7.125 C-3.76923077 0 -3.76923077 0 0 0 Z " fill="#274449" transform="translate(590,797)"></path>
<path d="M0 0 C0.66 0.33 1.32 0.66 2 1 C2.99 1.33 3.98 1.66 5 2 C4.85957123 3.64630328 4.71250671 5.29204179 4.5625 6.9375 C4.48128906 7.85402344 4.40007812 8.77054688 4.31640625 9.71484375 C4 12 4 12 3 13 C1.48071962 13.07179964 -0.04167482 13.08392007 -1.5625 13.0625 C-2.38878906 13.05347656 -3.21507812 13.04445313 -4.06640625 13.03515625 C-4.70449219 13.02355469 -5.34257812 13.01195312 -6 13 C-5.55090939 11.51800098 -5.09043436 10.03944764 -4.625 8.5625 C-4.36976563 7.73878906 -4.11453125 6.91507813 -3.8515625 6.06640625 C-3 4 -3 4 -1 3 C-0.67 2.01 -0.34 1.02 0 0 Z " fill="#1D3236" transform="translate(492,820)"></path>
<path d="M0 0 C3.96 0 7.92 0 12 0 C12.33 0.66 12.66 1.32 13 2 C13.99 2.33 14.98 2.66 16 3 C15.34 4.65 14.68 6.3 14 8 C11.87249844 7.77226744 9.74791944 7.51709182 7.625 7.25 C6.44164062 7.11078125 5.25828125 6.9715625 4.0390625 6.828125 C1 6 1 6 -0.4765625 4.046875 C-1 2 -1 2 0 0 Z " fill="#244146" transform="translate(369,787)"></path>
<path d="M0 0 C0.66 0 1.32 0 2 0 C2.33 6.6 2.66 13.2 3 20 C16.86 20.495 16.86 20.495 31 21 C31 21.33 31 21.66 31 22 C20.77 22 10.54 22 0 22 C0 14.74 0 7.48 0 0 Z " fill="#D5D6CE" transform="translate(414,725)"></path>
<path d="M0 0 C0.33 0 0.66 0 1 0 C1 1.98 1 3.96 1 6 C1.66 6 2.32 6 3 6 C3 5.34 3 4.68 3 4 C4.32 3.67 5.64 3.34 7 3 C7.33 3.99 7.66 4.98 8 6 C7.34 6 6.68 6 6 6 C6 6.99 6 7.98 6 9 C6.68707031 8.69964844 7.37414062 8.39929688 8.08203125 8.08984375 C9.43361328 7.51943359 9.43361328 7.51943359 10.8125 6.9375 C11.70582031 6.55464844 12.59914063 6.17179687 13.51953125 5.77734375 C16 5 16 5 19 6 C6.29844961 11.83979328 6.29844961 11.83979328 0 11 C-1.89885096 9.10114904 -1.12367506 6.42752097 -1.1328125 3.91015625 C-1 2 -1 2 0 0 Z " fill="#1D5E62" transform="translate(577,475)"></path>
<path d="M0 0 C5.8022175 -0.36263859 9.63999211 0.74315457 15 3 C15 5.64 15 8.28 15 11 C13.0625 10.1875 13.0625 10.1875 11 9 C10.67 8.01 10.34 7.02 10 6 C7.99983534 4.79117904 7.99983534 4.79117904 6 4 C9 3 9 3 10 3 C6.37 2.67 2.74 2.34 -1 2 C-0.67 1.34 -0.34 0.68 0 0 Z " fill="#1F2F33" transform="translate(420,787)"></path>
<path d="M0 0 C1.299375 -0.02126953 1.299375 -0.02126953 2.625 -0.04296875 C5 0.1875 5 0.1875 8 2.1875 C6.9275 2.31125 5.855 2.435 4.75 2.5625 C1.62136385 3.08393936 -0.33480424 3.58838254 -3 5.1875 C-2.67 5.8475 -2.34 6.5075 -2 7.1875 C-3.98 7.5175 -5.96 7.8475 -8 8.1875 C-8.33 7.1975 -8.66 6.2075 -9 5.1875 C-9.66 4.8575 -10.32 4.5275 -11 4.1875 C-7.67302146 0.54366636 -4.82795286 0.03592227 0 0 Z " fill="#24383D" transform="translate(329,786.8125)"></path>
<path d="M0 0 C2.0839403 0.11443603 4.16716493 0.24195547 6.25 0.375 C7.41015625 0.44460938 8.5703125 0.51421875 9.765625 0.5859375 C12.70694334 0.96248308 14.49949011 1.4774123 17 3 C15 4 15 4 11 4 C11.66 4.66 12.32 5.32 13 6 C8.71 6 4.42 6 0 6 C0 5.34 0 4.68 0 4 C-0.66 3.67 -1.32 3.34 -2 3 C-1.34 2.01 -0.68 1.02 0 0 Z " fill="#28454A" transform="translate(417,788)"></path>
<path d="M0 0 C5.14808788 1.02961758 7.62920538 2.34324249 12 5 C9 6 9 6 6 6 C4.16666667 7.16666667 4.16666667 7.16666667 3 9 C3.27036147 11.97397616 3.85446026 12.85446026 6 15 C3.83125748 14.49396008 2.00032373 14.00016187 0 13 C0 8.71 0 4.42 0 0 Z " fill="#19282B" transform="translate(339,635)"></path>
<path d="M0 0 C0.33 0 0.66 0 1 0 C1.21755666 5.4389165 1.10428384 9.87080814 -1 15 C-1.66 15 -2.32 15 -3 15 C-3.20625 15.845625 -3.4125 16.69125 -3.625 17.5625 C-5.33861355 21.84653389 -7.86932356 24.67242567 -11 28 C-11.66 27.67 -12.32 27.34 -13 27 C-12.113125 26.113125 -11.22625 25.22625 -10.3125 24.3125 C-4.55231796 17.62633124 -2.15654309 8.43012299 0 0 Z " fill="#1F5F64" transform="translate(510,413)"></path>
<path d="M0 0 C6.40387155 7.62283905 4.10593782 20.51267949 4 30 C3.67 30 3.34 30 3 30 C2.87625 28.700625 2.7525 27.40125 2.625 26.0625 C2.27932647 22.84623321 1.74574329 19.81729317 0.9375 16.6875 C-0.38571298 11.15941023 -0.17207515 5.64980086 0 0 Z " fill="#1D2E32" transform="translate(376,708)"></path>
<path d="M0 0 C0.99 0.33 1.98 0.66 3 1 C-2.60134853 10.37447913 -8.25300579 19.71398484 -14 29 C-14.33 28.34 -14.66 27.68 -15 27 C-13.9519043 24.61743164 -13.9519043 24.61743164 -12.32421875 21.66015625 C-11.74349609 20.59732422 -11.16277344 19.53449219 -10.56445312 18.43945312 C-9.94505859 17.32505859 -9.32566406 16.21066406 -8.6875 15.0625 C-8.07970703 13.95197266 -7.47191406 12.84144531 -6.84570312 11.69726562 C-2.38497741 3.57746611 -2.38497741 3.57746611 0 0 Z " fill="#E9EFED" transform="translate(440,413)"></path>
<path d="M0 0 C0.33 0.66 0.66 1.32 1 2 C1.66 2 2.32 2 3 2 C3 2.99 3 3.98 3 5 C2.34 5 1.68 5 1 5 C1 5.66 1 6.32 1 7 C0.01 7.33 -0.98 7.66 -2 8 C-3.3715383 9.95626937 -4.47040373 11.99733483 -5.62109375 14.08984375 C-7.19430498 16.26916469 -8.53705688 17.00122689 -11 18 C-9.48103632 13.56829827 -7.07360191 9.96975924 -4.375 6.1875 C-3.95476562 5.59001953 -3.53453125 4.99253906 -3.1015625 4.37695312 C-2.07220272 2.91479435 -1.0367177 1.45695101 0 0 Z " fill="#206267" transform="translate(487,344)"></path>
<path d="M0 0 C1.423125 -0.061875 2.84625 -0.12375 4.3125 -0.1875 C5.51326172 -0.23970703 5.51326172 -0.23970703 6.73828125 -0.29296875 C9 0 9 0 10.78125 1.34375 C12.44546615 3.60537707 12.22189312 5.26331821 12 8 C11.7525 7.360625 11.505 6.72125 11.25 6.0625 C10.18919038 3.85598917 10.18919038 3.85598917 8.0625 3.1875 C5.80257287 2.84313191 5.80257287 2.84313191 3 4 C2.67 6.97 2.34 9.94 2 13 C2.66 13.33 3.32 13.66 4 14 C2.68 14 1.36 14 0 14 C0 9.38 0 4.76 0 0 Z " fill="#EEEFE8" transform="translate(571,795)"></path>
<path d="M0 0 C0.99 0 1.98 0 3 0 C4.75 1.8125 4.75 1.8125 6 4 C5.67 4.99 5.34 5.98 5 7 C4.34 7 3.68 7 3 7 C2.01 8.485 2.01 8.485 1 10 C-0.32 9.34 -1.64 8.68 -3 8 C-4.32 9.32 -5.64 10.64 -7 12 C-5.52410328 7.57230983 -3.26930159 3.3663135 0 0 Z " fill="#25686B" transform="translate(510,310)"></path>
<path d="M0 0 C0.33 0.66 0.66 1.32 1 2 C-0.65 3.98 -2.3 5.96 -4 8 C-3.34 8.66 -2.68 9.32 -2 10 C-2 10.66 -2 11.32 -2 12 C-4.97 11.67 -7.94 11.34 -11 11 C-11 10.01 -11 9.02 -11 8 C-12.98 8 -14.96 8 -17 8 C-17 7.67 -17 7.34 -17 7 C-15.95199219 6.92652344 -15.95199219 6.92652344 -14.8828125 6.8515625 C-13.97273438 6.77679687 -13.06265625 6.70203125 -12.125 6.625 C-10.76761719 6.52058594 -10.76761719 6.52058594 -9.3828125 6.4140625 C-6.82058097 6.20431868 -6.82058097 6.20431868 -5 4 C-4.01 3.67 -3.02 3.34 -2 3 C-1.34 2.01 -0.68 1.02 0 0 Z " fill="#274349" transform="translate(387,821)"></path>
<path d="M0 0 C1.65 1.65 3.3 3.3 5 5 C3.02 5.99 3.02 5.99 1 7 C1 8.65 1 10.3 1 12 C-2.8665284 8.777893 -3.88059018 5.85077588 -5 1 C-2.525 1.495 -2.525 1.495 0 2 C0 1.34 0 0.68 0 0 Z " fill="#223B40" transform="translate(582,815)"></path>
<path d="M0 0 C0.66 0.33 1.32 0.66 2 1 C1.34 3.31 0.68 5.62 0 8 C-0.99 7.34 -1.98 6.68 -3 6 C-5.83791587 10.68873057 -6.42736599 14.5729651 -6.69140625 19.92578125 C-6.79324219 20.61027344 -6.89507813 21.29476562 -7 22 C-7.66 22.33 -8.32 22.66 -9 23 C-9.47875489 15.4596105 -8.55541362 9.3208851 -3.62109375 3.32421875 C-2.46906751 2.15906401 -1.24161986 1.06917265 0 0 Z " fill="#121D21" transform="translate(639,791)"></path>
<path d="M0 0 C0.66 0.33 1.32 0.66 2 1 C1.01 1.8971875 1.01 1.8971875 0 2.8125 C-2.3373846 4.87501834 -2.3373846 4.87501834 -2 8 C-2.56847656 8.27972656 -3.13695312 8.55945313 -3.72265625 8.84765625 C-9.4510136 11.82181173 -13.69782259 15.19982135 -18 20 C-18 17 -18 17 -15.5859375 14.2578125 C-14.52325233 13.20578082 -13.45255472 12.16179615 -12.375 11.125 C-11.85292969 10.60808594 -11.33085937 10.09117187 -10.79296875 9.55859375 C-7.34219404 6.17598249 -3.74742381 3.04970527 0 0 Z " fill="#1B595F" transform="translate(395,177)"></path>
<path d="M0 0 C0.763125 0.639375 1.52625 1.27875 2.3125 1.9375 C6.73944307 4.95635515 11.79735295 4.81485242 17 5 C17 5.33 17 5.66 17 6 C12.38 6.33 7.76 6.66 3 7 C5.31 7.33 7.62 7.66 10 8 C10 8.33 10 8.66 10 9 C2.61538462 9.36923077 2.61538462 9.36923077 -0.5 7.5 C-0.995 7.005 -1.49 6.51 -2 6 C-1.67 5.34 -1.34 4.68 -1 4 C-0.34 4 0.32 4 1 4 C1 3.34 1 2.68 1 2 C0.34 1.67 -0.32 1.34 -1 1 C-0.67 0.67 -0.34 0.34 0 0 Z " fill="#27454A" transform="translate(642,823)"></path>
<path d="M0 0 C2 3 2 3 1.9375 6.4375 C0.8398083 10.60872846 -0.43606736 11.7154278 -4 14 C-4.66 10.37 -5.32 6.74 -6 3 C-5.01 3 -4.02 3 -3 3 C-1.31201173 1.56249809 -1.31201173 1.56249809 0 0 Z " fill="#244146" transform="translate(691,801)"></path>
<path d="M0 0 C1.8125 2 1.8125 2 2.0625 5.6875 C1.98 6.780625 1.8975 7.87375 1.8125 9 C1.1525 8.67 0.4925 8.34 -0.1875 8 C-0.5175 8.99 -0.8475 9.98 -1.1875 11 C-1.8475 11 -2.5075 11 -3.1875 11 C-3.8125 9.125 -3.8125 9.125 -4.1875 7 C-3.5275 6.34 -2.8675 5.68 -2.1875 5 C-3.5075 4.67 -4.8275 4.34 -6.1875 4 C-5.875 2.0625 -5.875 2.0625 -5.1875 0 C-2.1875 -1 -2.1875 -1 0 0 Z " fill="#264347" transform="translate(705.1875,800)"></path>
<path d="M0 0 C0.33 0.99 0.66 1.98 1 3 C-0.98 4.32 -2.96 5.64 -5 7 C-6.98 6.01 -8.96 5.02 -11 4 C-8.57489301 0.24108417 -8.57489301 0.24108417 -6.0625 -0.8125 C-3.72013043 -1.02544269 -2.17784663 -0.90117791 0 0 Z " fill="#253F44" transform="translate(367,792)"></path>
<path d="M0 0 C2 1 2 1 2.8515625 3.06640625 C3.56770833 5.37760417 4.28385417 7.68880208 5 10 C0.05 10 -4.9 10 -10 10 C-10.99 7.03 -11.98 4.06 -13 1 C-12.01 1.495 -12.01 1.495 -11 2 C-10.375 5.0625 -10.375 5.0625 -10 8 C-4.06 7.505 -4.06 7.505 2 7 C1.34 4.69 0.68 2.38 0 0 Z " fill="#0E1C1E" transform="translate(463,643)"></path>
<path d="M0 0 C-7.8269413 5.62380227 -16.55395654 10.69608696 -26 13 C-28.16015625 12.5390625 -28.16015625 12.5390625 -30 12 C-27.37646482 10.99600476 -24.75132205 9.99665555 -22.125 9 C-21.37863281 8.71382813 -20.63226562 8.42765625 -19.86328125 8.1328125 C-14.2265625 6 -14.2265625 6 -12 6 C-11.34 4.68 -10.68 3.36 -10 2 C-10 2.66 -10 3.32 -10 4 C-6.95865509 2.33075929 -6.95865509 2.33075929 -6 0 C-2.49056604 -1.24528302 -2.49056604 -1.24528302 0 0 Z " fill="#0F4B52" transform="translate(539,495)"></path>
<path d="M0 0 C2.97 0.495 2.97 0.495 6 1 C5.63636795 3.57798841 5.40466367 4.69164073 3.29296875 6.30078125 C2.59816406 6.63464844 1.90335937 6.96851563 1.1875 7.3125 C0.50042969 7.65925781 -0.18664062 8.00601563 -0.89453125 8.36328125 C-3.34106905 9.10314333 -4.61786119 8.82973374 -7 8 C-6 6 -6 6 -4.0625 5.125 C-1.57998766 3.77090236 -1.03128603 2.57821507 0 0 Z " fill="#203A3F" transform="translate(430,823)"></path>
<path d="M0 0 C0.99 0.33 1.98 0.66 3 1 C2.01 1.495 2.01 1.495 1 2 C0.67 2.99 0.34 3.98 0 5 C-1.4375 6.6875 -1.4375 6.6875 -3 8 C-3.66 8 -4.32 8 -5 8 C-5 9.65 -5 11.3 -5 13 C-3.02 13.495 -3.02 13.495 -1 14 C-1.99 14 -2.98 14 -4 14 C-3.525625 14.78375 -3.05125 15.5675 -2.5625 16.375 C-1.66101977 17.88948678 -0.78820515 19.4235897 0 21 C-3.16115776 19.63016497 -3.9927092 19.0109362 -6 16 C-6.71207438 11.11483856 -6.72852643 7.1899265 -4.125 2.9375 C-2 1 -2 1 0 0 Z " fill="#162426" transform="translate(415,789)"></path>
<path d="M0 0 C4.95 0 9.9 0 15 0 C14.67 0.66 14.34 1.32 14 2 C11.05859375 2.4140625 11.05859375 2.4140625 7.4375 2.625 C6.23996094 2.69976563 5.04242188 2.77453125 3.80859375 2.8515625 C2.88175781 2.90054688 1.95492188 2.94953125 1 3 C-0.98 7.455 -0.98 7.455 -3 12 C-4 10 -4 10 -3.22265625 7.6171875 C-2.1484375 5.078125 -1.07421875 2.5390625 0 0 Z " fill="#FAFAF3" transform="translate(499,822)"></path>
<path d="M0 0 C1.33333333 0 2.66666667 0 4 0 C4 1.65 4 3.3 4 5 C4.66 5.33 5.32 5.66 6 6 C4.03533587 7.06775224 2.03144641 8.06553465 0 9 C-0.66 8.67 -1.32 8.34 -2 8 C-2.99 8.495 -2.99 8.495 -4 9 C-3.47557578 5.2241456 -2.67345333 2.77627845 0 0 Z " fill="#26696C" transform="translate(321,360)"></path>
<path d="M0 0 C0.93423645 3.01031744 1.04449911 3.86650268 0 7 C2.97 7 5.94 7 9 7 C8.67 8.32 8.34 9.64 8 11 C6.52093108 11.02689216 5.04172517 11.04634621 3.5625 11.0625 C2.32693359 11.07990234 2.32693359 11.07990234 1.06640625 11.09765625 C-1 11 -1 11 -2 10 C-2.35897436 3.53846154 -2.35897436 3.53846154 0 0 Z " fill="#EAE9E0" transform="translate(676,825)"></path>
<path d="M0 0 C2.875 0.25 2.875 0.25 6 1 C7.3125 2.9375 7.3125 2.9375 8 5 C8.33 5.66 8.66 6.32 9 7 C8.67 7.66 8.34 8.32 8 9 C6.02 9 4.04 9 2 9 C1.855625 8.2575 1.71125 7.515 1.5625 6.75 C1.09812508 4.47972261 0.58136431 2.24240521 0 0 Z " fill="#254047" transform="translate(708,823)"></path>
<path d="M0 0 C1.32 0.33 2.64 0.66 4 1 C4 1.99 4 2.98 4 4 C3.67 3.67 3.34 3.34 3 3 C2.67 8.28 2.34 13.56 2 19 C1.34 19 0.68 19 0 19 C0 12.73 0 6.46 0 0 Z " fill="#D6D8D3" transform="translate(571,815)"></path>
<path d="M0 0 C1.00289062 0.10183594 2.00578125 0.20367188 3.0390625 0.30859375 C3.80992187 0.39238281 4.58078125 0.47617187 5.375 0.5625 C4.385 2.0475 4.385 2.0475 3.375 3.5625 C1.065 3.5625 -1.245 3.5625 -3.625 3.5625 C-3.625 8.1825 -3.625 12.8025 -3.625 17.5625 C-3.955 17.5625 -4.285 17.5625 -4.625 17.5625 C-4.955 12.6125 -5.285 7.6625 -5.625 2.5625 C-6.615 3.0575 -6.615 3.0575 -7.625 3.5625 C-7.625 2.5725 -7.625 1.5825 -7.625 0.5625 C-4.89657939 -0.80171031 -3.01546682 -0.31557211 0 0 Z " fill="#314E52" transform="translate(573.625,791.4375)"></path>
<path d="M0 0 C1.13643966 3.40931897 0.86747764 4.00335456 -0.4375 7.1875 C-0.72496094 7.90292969 -1.01242187 8.61835937 -1.30859375 9.35546875 C-1.53675781 9.89816406 -1.76492188 10.44085937 -2 11 C-1.01 11 -0.02 11 1 11 C1 13.31 1 15.62 1 18 C0.34 18 -0.32 18 -1 18 C-1.33 17.01 -1.66 16.02 -2 15 C-2.66 15.99 -3.32 16.98 -4 18 C-5.15926382 13.74936599 -4.90949326 10.29942266 -4 6 C-3.34 5.67 -2.68 5.34 -2 5 C-1.27840576 3.35636866 -0.60648579 1.68949614 0 0 Z " fill="#274449" transform="translate(500,799)"></path>
<path d="M0 0 C1.051875 -0.02126953 1.051875 -0.02126953 2.125 -0.04296875 C4 0.1875 4 0.1875 6 2.1875 C0.555 2.6825 0.555 2.6825 -5 3.1875 C-5.33 4.1775 -5.66 5.1675 -6 6.1875 C-6.99 6.1875 -7.98 6.1875 -9 6.1875 C-9.66 7.5075 -10.32 8.8275 -11 10.1875 C-10.52048204 5.87183833 -9.29764982 3.9855059 -6 1.1875 C-3.77109005 0.07304502 -2.46944894 0.02269714 0 0 Z " fill="#F3F3EA" transform="translate(559,348.8125)"></path>
<path d="M0 0 C0 3.20395416 -0.74335022 5.09399739 -2 8 C-0.35 6.68 1.3 5.36 3 4 C1.74155722 7.88019859 0.57583797 9.9411842 -3 12 C-3.99 12 -4.98 12 -6 12 C-6.66 12.66 -7.32 13.32 -8 14 C-7.37606349 10.23880524 -5.65226285 7.81039958 -3.4375 4.75 C-2.79683594 3.85796875 -2.15617187 2.9659375 -1.49609375 2.046875 C-0.75552734 1.03367187 -0.75552734 1.03367187 0 0 Z " fill="#F9F9F2" transform="translate(503,311)"></path>
<path d="M0 0 C0.33 0.66 0.66 1.32 1 2 C3.01669827 3.13350534 3.01669827 3.13350534 5 4 C4.01 4.33 3.02 4.66 2 5 C2 5.66 2 6.32 2 7 C-1.96 8.98 -1.96 8.98 -6 11 C-4.54955729 6.89041233 -2.48889248 3.56741255 0 0 Z " fill="#226468" transform="translate(468,373)"></path>
<path d="M0 0 C0.33 0.99 0.66 1.98 1 3 C1.66 2.67 2.32 2.34 3 2 C1.54955729 6.10958767 -0.51110752 9.43258745 -3 13 C-4.11329523 9.66011432 -4.01098929 7.3699643 -3 4 C-1.4375 1.6875 -1.4375 1.6875 0 0 Z " fill="#F5F5EE" transform="translate(472,359)"></path>
<path d="M0 0 C2.16321167 3.24481751 3.6314591 6.35055759 5 10 C4.67 10.99 4.34 11.98 4 13 C3.01 11.68 2.02 10.36 1 9 C0.67 12.3 0.34 15.6 0 19 C-0.33 19 -0.66 19 -1 19 C-1.02714735 16.77090129 -1.04646254 14.54170633 -1.0625 12.3125 C-1.07990234 10.45044922 -1.07990234 10.45044922 -1.09765625 8.55078125 C-1.01478673 5.53764546 -0.70839449 2.91724661 0 0 Z " fill="#F7F7F2" transform="translate(315,707)"></path>
<path d="M0 0 C4.59808129 0.53894425 7.86784369 1.76571528 11.875 4.0625 C12.84179688 4.61035156 13.80859375 5.15820312 14.8046875 5.72265625 C15.89136719 6.35494141 15.89136719 6.35494141 17 7 C16.01 7.495 16.01 7.495 15 8 C14.113125 7.525625 13.22625 7.05125 12.3125 6.5625 C8.58513419 4.80430858 6.06912977 4.75585221 2 5 C1.34 3.35 0.68 1.7 0 0 Z " fill="#1C5C60" transform="translate(659,215)"></path>
<path d="M0 0 C0 3.3 0 6.6 0 10 C-0.99 10.33 -1.98 10.66 -3 11 C-3.144375 10.21625 -3.28875 9.4325 -3.4375 8.625 C-3.87798925 6.03578982 -3.87798925 6.03578982 -5 4 C-1.125 0 -1.125 0 0 0 Z " fill="#223D43" transform="translate(590,797)"></path>
<path d="M0 0 C0.33 0.99 0.66 1.98 1 3 C3.31 3 5.62 3 8 3 C8.33 2.01 8.66 1.02 9 0 C9.66 1.65 10.32 3.3 11 5 C6.71 5 2.42 5 -2 5 C-1.34 3.35 -0.68 1.7 0 0 Z " fill="#F4F4ED" transform="translate(503,810)"></path>
<path d="M0 0 C1.07314453 0.10828125 1.07314453 0.10828125 2.16796875 0.21875 C2.82796875 1.20875 3.48796875 2.19875 4.16796875 3.21875 C1.41770458 3.27279449 -1.33149328 3.31244306 -4.08203125 3.34375 C-4.85933594 3.36050781 -5.63664062 3.37726563 -6.4375 3.39453125 C-13.55634269 3.45537606 -13.55634269 3.45537606 -16.83203125 1.21875 C-14.60303338 1.04984082 -12.37382463 0.88371313 -10.14453125 0.71875 C-8.28248047 0.57953125 -8.28248047 0.57953125 -6.3828125 0.4375 C-4.25425169 0.30636754 -2.12626282 0.16423547 0 0 Z " fill="#337779" transform="translate(491.83203125,143.78125)"></path>
<path d="M0 0 C1.50433594 0.01353516 1.50433594 0.01353516 3.0390625 0.02734375 C3.80992187 0.03894531 4.58078125 0.05054688 5.375 0.0625 C5.045 0.7225 4.715 1.3825 4.375 2.0625 C1.075 2.0625 -2.225 2.0625 -5.625 2.0625 C-5.955 3.0525 -6.285 4.0425 -6.625 5.0625 C-7.615 5.3925 -8.605 5.7225 -9.625 6.0625 C-9.955 6.7225 -10.285 7.3825 -10.625 8.0625 C-11.285 7.7325 -11.945 7.4025 -12.625 7.0625 C-6.8504902 -0.07965686 -6.8504902 -0.07965686 0 0 Z " fill="#F7F8F2" transform="translate(653.625,794.9375)"></path>
<path d="M0 0 C1.32 0.99 2.64 1.98 4 3 C3.34 4.32 2.68 5.64 2 7 C1.01 6.67 0.02 6.34 -1 6 C-0.67 7.98 -0.34 9.96 0 12 C-2.430466 9.569534 -2.76271993 8.4010144 -3 5 C-1.5625 2.1875 -1.5625 2.1875 0 0 Z " fill="#284348" transform="translate(514,798)"></path>
<path d="M0 0 C0.66 0.33 1.32 0.66 2 1 C1.175 1.763125 0.35 2.52625 -0.5 3.3125 C-3.34055197 5.75434142 -3.34055197 5.75434142 -3 9 C-3.66 9.66 -4.32 10.32 -5 11 C-5.66 11 -6.32 11 -7 11 C-7.99 11.495 -7.99 11.495 -9 12 C-7.54718935 6.67302761 -3.91888622 3.63597198 0 0 Z " fill="#215E62" transform="translate(331,348)"></path>
<path d="M0 0 C2 2 2 2 2.5 5.5625 C2.665 6.696875 2.83 7.83125 3 9 C3.66 9.33 4.32 9.66 5 10 C4.34 10.66 3.68 11.32 3 12 C2.01 12 1.02 12 0 12 C-0.33 12.99 -0.66 13.98 -1 15 C-1.33 14.34 -1.66 13.68 -2 13 C-1.690625 12.29875 -1.38125 11.5975 -1.0625 10.875 C0.34430688 7.06834608 0.13712735 4.04525681 0 0 Z " fill="#1B5C61" transform="translate(404,378)"></path>
<path d="M0 0 C1.65 0 3.3 0 5 0 C3.20668296 4.564807 -0.04908751 6.79502464 -4.125 9.3125 C-6 10 -6 10 -9 9 C-6.03 7.35 -3.06 5.7 0 4 C0 2.68 0 1.36 0 0 Z " fill="#101E20" transform="translate(589,642)"></path>
<path d="M0 0 C1.09375 3.7265625 1.09375 3.7265625 0.25 6.1875 C-1 8 -1 8 -4 9 C-5.37195574 10.29355827 -6.71182656 11.62298702 -8 13 C-6.40956621 7.91061189 -3.2553049 4.12543357 0 0 Z " fill="#1A5A5F" transform="translate(502,322)"></path>
<path d="M0 0 C0.5534764 2.07553648 1 3.84365964 1 6 C-1.97 6 -4.94 6 -8 6 C-5.51047079 3.33264727 -3.36591866 1.44253657 0 0 Z M-7 7 C-5 8 -5 8 -5 8 Z " fill="#206064" transform="translate(417,162)"></path>
<path d="M0 0 C3.96 0 7.92 0 12 0 C12 0.99 12 1.98 12 3 C7.71 3 3.42 3 -1 3 C-0.67 2.01 -0.34 1.02 0 0 Z " fill="#364E50" transform="translate(369,787)"></path>
<path d="M0 0 C-2.77280706 3.08089673 -5.06326356 4.68775452 -9 6 C-9.66 5.34 -10.32 4.68 -11 4 C-8.32997607 0.73663741 -4.08378642 -2.04189321 0 0 Z " fill="#E8E9DF" transform="translate(503,322)"></path>
<path d="M0 0 C0.66 0 1.32 0 2 0 C2.38218767 1.65614657 2.71395102 3.32457024 3 5 C2.67 5.33 2.34 5.66 2 6 C2 6.99 2 7.98 2 9 C0.35 9 -1.3 9 -3 9 C-2.01 6.03 -1.02 3.06 0 0 Z " fill="#F4EEDC" transform="translate(695,804)"></path>
<path d="M0 0 C1 3 1 3 -0.14453125 5.4453125 C-0.69496094 6.32960938 -1.24539063 7.21390625 -1.8125 8.125 C-2.35519531 9.01445312 -2.89789062 9.90390625 -3.45703125 10.8203125 C-5 13 -5 13 -7 14 C-6.835 13.236875 -6.67 12.47375 -6.5 11.6875 C-5.90854604 8.96403764 -5.90854604 8.96403764 -6 6 C-5.01 6 -4.02 6 -3 6 C-2.01 4.02 -1.02 2.04 0 0 Z " fill="#1D5A5E" transform="translate(556,470)"></path>
<path d="M0 0 C0.66 0.33 1.32 0.66 2 1 C1.45773019 4.79588866 -0.20127563 6.47211993 -3 9 C-3.66 8.67 -4.32 8.34 -5 8 C-3.35 5.36 -1.7 2.72 0 0 Z " fill="#F4F6F0" transform="translate(453,391)"></path>
<path d="M0 0 C2.09375 -0.36328125 2.09375 -0.36328125 4.5 -0.3125 C5.69109375 -0.30669922 5.69109375 -0.30669922 6.90625 -0.30078125 C9 0 9 0 11 2 C8.35541621 3.32229189 6.32238699 3.09677194 3.375 3.0625 C2.37210937 3.05347656 1.36921875 3.04445313 0.3359375 3.03515625 C-0.43492187 3.02355469 -1.20578125 3.01195312 -2 3 C-1.34 2.01 -0.68 1.02 0 0 Z " fill="#3A7879" transform="translate(390,326)"></path>
<path d="M0 0 C0.66 0 1.32 0 2 0 C2 1.65 2 3.3 2 5 C1.34 5 0.68 5 0 5 C-0.99 7.97 -1.98 10.94 -3 14 C-4.10084497 9.59662012 -3.7915332 8.73201586 -2.0625 4.75 C-1.68222656 3.85796875 -1.30195313 2.9659375 -0.91015625 2.046875 C-0.60980469 1.37140625 -0.30945313 0.6959375 0 0 Z " fill="#EEF0EC" transform="translate(363,707)"></path>
<path d="M0 0 C1.23922223 3.71766668 0.57018942 5.43889537 -0.4375 9.1875 C-0.72496094 10.27417969 -1.01242187 11.36085938 -1.30859375 12.48046875 C-1.65083984 13.72763672 -1.65083984 13.72763672 -2 15 C-2.33 15 -2.66 15 -3 15 C-3 11.37 -3 7.74 -3 4 C-2.34 4 -1.68 4 -1 4 C-0.67 2.68 -0.34 1.36 0 0 Z " fill="#F6F6EF" transform="translate(314,292)"></path>
<path d="M0 0 C0.99 0.33 1.98 0.66 3 1 C2.01 2.485 2.01 2.485 1 4 C1.62056011 5.68437744 2.29289322 7.35008418 3 9 C3.125 11.8125 3.125 11.8125 3 14 C2.7525 13.484375 2.505 12.96875 2.25 12.4375 C0.60418384 9.22815849 -1.1976096 6.12414336 -3 3 C-2.01 2.01 -1.02 1.02 0 0 Z " fill="#1C5F62" transform="translate(439,292)"></path>
<path d="M0 0 C0.66 0.33 1.32 0.66 2 1 C-1.75 4 -1.75 4 -4 4 C-4.33 5.32 -4.66 6.64 -5 8 C-6.65 8 -8.3 8 -10 8 C-6.91367389 4.7373124 -4.06516496 1.97764782 0 0 Z " fill="#1B5B60" transform="translate(590,227)"></path>
<path d="M0 0 C0.66 0 1.32 0 2 0 C2.99 3.3 3.98 6.6 5 10 C4.34 10 3.68 10 3 10 C2.67 8.35 2.34 6.7 2 5 C1.34 5 0.68 5 0 5 C-0.33 5.99 -0.66 6.98 -1 8 C-2 6 -2 6 -1.0625 2.875 C-0.5365625 1.451875 -0.5365625 1.451875 0 0 Z " fill="#EAECE7" transform="translate(695,799)"></path>
<path d="M0 0 C0.99 0 1.98 0 3 0 C3 0.66 3 1.32 3 2 C3.66 2 4.32 2 5 2 C6.0625 3.8125 6.0625 3.8125 7 6 C6.67 6.99 6.34 7.98 6 9 C4.68 7.35 3.36 5.7 2 4 C1.34 4.66 0.68 5.32 0 6 C0 4.02 0 2.04 0 0 Z " fill="#2E4347" transform="translate(314,706)"></path>
<path d="M0 0 C-1.43160268 1.00842453 -2.87051453 2.00647891 -4.3125 3 C-5.51326172 3.8353125 -5.51326172 3.8353125 -6.73828125 4.6875 C-9 6 -9 6 -12 6 C-11.34 4.68 -10.68 3.36 -10 2 C-10 2.66 -10 3.32 -10 4 C-6.95865509 2.33075929 -6.95865509 2.33075929 -6 0 C-2.49056604 -1.24528302 -2.49056604 -1.24528302 0 0 Z " fill="#1A5A5E" transform="translate(539,495)"></path>
<path d="M0 0 C2 1 2 1 2.625 2.625 C3.12095645 5.7660575 3.06103811 8.82601831 3 12 C2.34 11.01 1.68 10.02 1 9 C0.34 9 -0.32 9 -1 9 C-0.67 6.03 -0.34 3.06 0 0 Z " fill="#1C5D62" transform="translate(650,382)"></path>
<path d="M0 0 C0.66 0.33 1.32 0.66 2 1 C2.99 1.33 3.98 1.66 5 2 C4.67 3.65 4.34 5.3 4 7 C2.35 6.67 0.7 6.34 -1 6 C-0.67 4.02 -0.34 2.04 0 0 Z " fill="#27434A" transform="translate(492,820)"></path>
<path d="M0 0 C2.5654594 2.5654594 2.54046087 4.47686668 3 8 C1.68 7.34 0.36 6.68 -1 6 C-1 6.66 -1 7.32 -1 8 C-1.66 7.67 -2.32 7.34 -3 7 C-2.01 4.69 -1.02 2.38 0 0 Z " fill="#F4F3EC" transform="translate(507,799)"></path>
<path d="M0 0 C0.95397067 3.40394081 1.05552406 5.56954679 0 9 C-1.5625 10.8125 -1.5625 10.8125 -3 12 C-4.21386936 8.35839192 -3.6674695 7.66834531 -2.0625 4.3125 C-1.49208984 3.10013672 -1.49208984 3.10013672 -0.91015625 1.86328125 C-0.60980469 1.24839844 -0.30945313 0.63351563 0 0 Z " fill="#EAECE2" transform="translate(552,236)"></path>
<path d="M0 0 C1.65 0.99 3.3 1.98 5 3 C4.814375 3.556875 4.62875 4.11375 4.4375 4.6875 C3.92448835 7.399133 4.3359276 9.34371039 5 12 C2.43470546 10.71735273 2.33500137 9.77227651 1.375 7.125 C1.11460937 6.42632813 0.85421875 5.72765625 0.5859375 5.0078125 C0 3 0 3 0 0 Z " fill="#132326" transform="translate(698,802)"></path>
<path d="M0 0 C2 2 2 2 2.125 4.625 C2.08375 5.40875 2.0425 6.1925 2 7 C1.7525 6.360625 1.505 5.72125 1.25 5.0625 C0.18919038 2.85598917 0.18919038 2.85598917 -1.9375 2.1875 C-4.19742713 1.84313191 -4.19742713 1.84313191 -7 3 C-7 2.01 -7 1.02 -7 0 C-3.85179059 -1.04940314 -3.00659136 -1.066855 0 0 Z " fill="#F8F5EC" transform="translate(581,796)"></path>
<path d="M0 0 C3.03920174 3.03920174 3.44265837 3.73410982 4.1875 7.6875 C4.34605469 8.49574219 4.50460937 9.30398438 4.66796875 10.13671875 C4.77753906 10.75160156 4.88710938 11.36648438 5 12 C4.67 11.34 4.34 10.68 4 10 C3.34 10 2.68 10 2 10 C1.34 6.7 0.68 3.4 0 0 Z " fill="#152426" transform="translate(662,733)"></path>
<path d="M0 0 C-1.3125 1.5 -1.3125 1.5 -3 3 C-3.99 3 -4.98 3 -6 3 C-6.33 2.34 -6.66 1.68 -7 1 C-7.99 0.67 -8.98 0.34 -10 0 C-6.22996568 -2.61002376 -4.07631429 -1.66758312 0 0 Z " fill="#1D3033" transform="translate(651,790)"></path>
<path d="M0 0 C1.32 0.33 2.64 0.66 4 1 C4 4.3 4 7.6 4 11 C3.67 11 3.34 11 3 11 C3 9.02 3 7.04 3 5 C2.01 5 1.02 5 0 5 C0 3.35 0 1.7 0 0 Z " fill="#EEE8DC" transform="translate(368,624)"></path>
<path d="M0 0 C1.36118461 2.24195113 2.06138028 3.47826762 1.75 6.125 C1 8 1 8 -1 10 C-1 8.68 -1 7.36 -1 6 C-1.66 5.67 -2.32 5.34 -3 5 C-2.01 3.35 -1.02 1.7 0 0 Z " fill="#E7E9E2" transform="translate(467,366)"></path>
<path d="M0 0 C-1 3 -1 3 -4 5 C-4.66 4.34 -5.32 3.68 -6 3 C-6 2.01 -6 1.02 -6 0 C-2.25 -1.125 -2.25 -1.125 0 0 Z " fill="#1A3237" transform="translate(519,804)"></path>
<path d="M0 0 C1.32 0 2.64 0 4 0 C3.34 1.98 2.68 3.96 2 6 C1.34 6 0.68 6 0 6 C-0.38218767 4.34385343 -0.71395102 2.67542976 -1 1 C-0.67 0.67 -0.34 0.34 0 0 Z " fill="#EDEEE6" transform="translate(340,726)"></path>
<path d="M0 0 C0.33 0 0.66 0 1 0 C1 1.98 1 3.96 1 6 C-1.31 5.67 -3.62 5.34 -6 5 C-6 4.01 -6 3.02 -6 2 C-3.03 2.495 -3.03 2.495 0 3 C0 2.01 0 1.02 0 0 Z " fill="#2D4649" transform="translate(383,584)"></path>
<path d="M0 0 C0.99 0.33 1.98 0.66 3 1 C1.68 3.31 0.36 5.62 -1 8 C-1.99 7.67 -2.98 7.34 -4 7 C-2.68 4.69 -1.36 2.38 0 0 Z " fill="#E2EAE6" transform="translate(440,413)"></path>
<path d="M0 0 C0.33 0.99 0.66 1.98 1 3 C2.65 2.67 4.3 2.34 6 2 C5.67 2.66 5.34 3.32 5 4 C4.34 4 3.68 4 3 4 C2.67 4.99 2.34 5.98 2 7 C0.68 6.34 -0.64 5.68 -2 5 C-1.34 3.35 -0.68 1.7 0 0 Z " fill="#206568" transform="translate(316,370)"></path>
<path d="M0 0 C0.33 0.66 0.66 1.32 1 2 C0.00390625 3.9453125 0.00390625 3.9453125 -1.4375 6.125 C-1.91058594 6.84945313 -2.38367188 7.57390625 -2.87109375 8.3203125 C-3.24363281 8.87460937 -3.61617188 9.42890625 -4 10 C-4.33 9.34 -4.66 8.68 -5 8 C-4.0625 5.875 -4.0625 5.875 -3 4 C-3.66 3.67 -4.32 3.34 -5 3 C-3.35 2.01 -1.7 1.02 0 0 Z " fill="#1B5C60" transform="translate(469,361)"></path>
<path d="M0 0 C0.33 0.99 0.66 1.98 1 3 C1.66 3.33 2.32 3.66 3 4 C1.68 4.33 0.36 4.66 -1 5 C-1 5.66 -1 6.32 -1 7 C-1.99 7.33 -2.98 7.66 -4 8 C-2.25 2.25 -2.25 2.25 0 0 Z " fill="#206063" transform="translate(330,260)"></path>
<path d="M0 0 C2.475 0.495 2.475 0.495 5 1 C5 3.31 5 5.62 5 8 C4.01 8 3.02 8 2 8 C2.04125 7.05125 2.0825 6.1025 2.125 5.125 C2.34973818 1.89755144 2.34973818 1.89755144 0 0 Z " fill="#293334" transform="translate(338,789)"></path>
<path d="M0 0 C2.6875 -0.3125 2.6875 -0.3125 5 0 C2.6875 2.5 2.6875 2.5 0 5 C-0.99 5 -1.98 5 -3 5 C-1.8125 2.5 -1.8125 2.5 0 0 Z " fill="#216165" transform="translate(617,463)"></path>
<path d="M0 0 C0.66 0 1.32 0 2 0 C1.33035714 7.09821429 1.33035714 7.09821429 -2 10 C-1.85950482 8.52031676 -1.71245174 7.04125484 -1.5625 5.5625 C-1.48128906 4.73878906 -1.40007812 3.91507812 -1.31640625 3.06640625 C-1 1 -1 1 0 0 Z " fill="#F4F4ED" transform="translate(464,372)"></path>
<path d="M0 0 C0.33 0.66 0.66 1.32 1 2 C-3.625 6.875 -3.625 6.875 -7 8 C-6.67 6.68 -6.34 5.36 -6 4 C-5.38125 3.896875 -4.7625 3.79375 -4.125 3.6875 C-1.63473516 3.12474627 -1.63473516 3.12474627 0 0 Z " fill="#F7F3E9" transform="translate(505,315)"></path>
<path d="M0 0 C0.33 0 0.66 0 1 0 C1.125 6.75 1.125 6.75 0 9 C-0.66 9 -1.32 9 -2 9 C-2.33 7.02 -2.66 5.04 -3 3 C-2.01 3 -1.02 3 0 3 C0 2.01 0 1.02 0 0 Z " fill="#1E5F64" transform="translate(555,220)"></path>
<path d="M0 0 C1.9375 0.3125 1.9375 0.3125 4 1 C4.33 1.99 4.66 2.98 5 4 C2.36 4 -0.28 4 -3 4 C-2.01 3.34 -1.02 2.68 0 2 C0 1.34 0 0.68 0 0 Z " fill="#2A464C" transform="translate(590,828)"></path>
<path d="M0 0 C1.65 0 3.3 0 5 0 C5 0.66 5 1.32 5 2 C5.99 2.33 6.98 2.66 8 3 C5.36 3 2.72 3 0 3 C0 2.01 0 1.02 0 0 Z " fill="#29474C" transform="translate(370,790)"></path>
<path d="M0 0 C1.485 0.99 1.485 0.99 3 2 C3.375 5 3.375 5 3 8 C2.01 8.66 1.02 9.32 0 10 C0 6.7 0 3.4 0 0 Z " fill="#354E51" transform="translate(309,739)"></path>
<path d="M0 0 C0.33 0 0.66 0 1 0 C1.28571429 7.42857143 1.28571429 7.42857143 -1 11 C-2 8 -2 8 -2 4 C-1.34 4 -0.68 4 0 4 C0 2.68 0 1.36 0 0 Z " fill="#132124" transform="translate(684,619)"></path>
<path d="M0 0 C0.33 0.66 0.66 1.32 1 2 C0.0625 4.625 0.0625 4.625 -1 7 C-1.66 7 -2.32 7 -3 7 C-3.33 7.99 -3.66 8.98 -4 10 C-4.33 9.34 -4.66 8.68 -5 8 C-4.00390625 6.0546875 -4.00390625 6.0546875 -2.5625 3.875 C-2.08941406 3.15054687 -1.61632812 2.42609375 -1.12890625 1.6796875 C-0.75636719 1.12539063 -0.38382812 0.57109375 0 0 Z " fill="#1A595D" transform="translate(438,421)"></path>
<path d="M0 0 C1.65 0 3.3 0 5 0 C5 0.99 5 1.98 5 3 C5.99 3.33 6.98 3.66 8 4 C7.01 4.99 6.02 5.98 5 7 C3.9375 5.125 3.9375 5.125 3 3 C3.33 2.34 3.66 1.68 4 1 C2.68 0.67 1.36 0.34 0 0 Z " fill="#1E6066" transform="translate(492,145)"></path>
<path d="M0 0 C0 2.64 0 5.28 0 8 C-0.99 8.495 -0.99 8.495 -2 9 C-2.66 7.02 -3.32 5.04 -4 3 C-1.125 0 -1.125 0 0 0 Z " fill="#38484D" transform="translate(343,823)"></path>
<path d="M0 0 C2.3125 -0.1875 2.3125 -0.1875 5 0 C5.99 0.99 6.98 1.98 8 3 C5.03 3 2.06 3 -1 3 C-0.67 2.01 -0.34 1.02 0 0 Z " fill="#E6E5DB" transform="translate(371,824)"></path>
<path d="M0 0 C2 3 4 6 6 9 C3.15616877 7.7251791 0.86245982 6.54862922 -1 4 C-0.6875 1.8125 -0.6875 1.8125 0 0 Z " fill="#EAEAE3" transform="translate(631,820)"></path>
<path d="M0 0 C0.99 0 1.98 0 3 0 C4.0625 1.8125 4.0625 1.8125 5 4 C4.67 4.99 4.34 5.98 4 7 C3.34 7 2.68 7 2 7 C1.34 4.69 0.68 2.38 0 0 Z " fill="#E7E6DB" transform="translate(521,810)"></path>
<path d="M0 0 C0.66 0 1.32 0 2 0 C2.66 2.31 3.32 4.62 4 7 C3.01 7 2.02 7 1 7 C0.67 4.69 0.34 2.38 0 0 Z " fill="#ECEBE2" transform="translate(447,641)"></path>
<path d="M0 0 C0.33 0 0.66 0 1 0 C1 2.64 1 5.28 1 8 C0.34 8 -0.32 8 -1 8 C-1.33 8.66 -1.66 9.32 -2 10 C-1.125 2.25 -1.125 2.25 0 0 Z " fill="#18595E" transform="translate(580,464)"></path>
<path d="M0 0 C0.66 0.33 1.32 0.66 2 1 C1.34 3.31 0.68 5.62 0 8 C-0.66 7.67 -1.32 7.34 -2 7 C-2.125 4.625 -2.125 4.625 -2 2 C-1.34 1.34 -0.68 0.68 0 0 Z " fill="#182E33" transform="translate(639,791)"></path>
<path d="M0 0 C1.231394 3.69418201 0.64432764 6.2056261 0 10 C-0.99 10 -1.98 10 -3 10 C-2.21302675 6.58978257 -1.12880057 3.31114834 0 0 Z " fill="#E9E6D9" transform="translate(418,582)"></path>
</svg></svg><style>@media (prefers-color-scheme: light) { :root { filter: none; } }
@media (prefers-color-scheme: dark) { :root { filter: none; } }
</style></svg>